<mxfile host="app.diagrams.net" modified="2024-02-17T17:02:14.411Z" agent="Mozilla/5.0 (Windows NT 10.0; Win64; x64) AppleWebKit/537.36 (KHTML, like Gecko) Chrome/121.0.0.0 Safari/537.36" etag="kr1HPjkLMtTNldTo6aLD" version="22.1.18" type="device">
  <diagram id="ckih-kYbm7sZSPRh2YsL" name="Page-1">
    <mxGraphModel dx="1122" dy="1554" grid="1" gridSize="10" guides="1" tooltips="1" connect="1" arrows="1" fold="1" page="1" pageScale="1" pageWidth="850" pageHeight="1100" math="0" shadow="0">
      <root>
        <mxCell id="0" />
        <mxCell id="1" parent="0" />
        <mxCell id="TgJVJYoceKgYgHXK6Og4-248" value="" style="endArrow=classic;startArrow=classic;html=1;rounded=0;entryX=0;entryY=0.5;entryDx=0;entryDy=0;exitX=0.875;exitY=0.625;exitDx=0;exitDy=0;exitPerimeter=0;" edge="1" parent="1" source="TgJVJYoceKgYgHXK6Og4-18" target="TgJVJYoceKgYgHXK6Og4-149">
          <mxGeometry width="50" height="50" relative="1" as="geometry">
            <mxPoint x="180" y="240" as="sourcePoint" />
            <mxPoint x="230" y="190" as="targetPoint" />
          </mxGeometry>
        </mxCell>
        <mxCell id="TgJVJYoceKgYgHXK6Og4-251" value="" style="endArrow=classic;startArrow=classic;html=1;rounded=0;entryX=0;entryY=0.5;entryDx=0;entryDy=0;" edge="1" parent="1" target="TgJVJYoceKgYgHXK6Og4-149">
          <mxGeometry width="50" height="50" relative="1" as="geometry">
            <mxPoint x="300" y="110" as="sourcePoint" />
            <mxPoint x="350" y="70" as="targetPoint" />
          </mxGeometry>
        </mxCell>
        <mxCell id="TgJVJYoceKgYgHXK6Og4-250" value="" style="endArrow=classic;startArrow=classic;html=1;rounded=0;" edge="1" parent="1">
          <mxGeometry width="50" height="50" relative="1" as="geometry">
            <mxPoint x="300" y="370" as="sourcePoint" />
            <mxPoint x="990" y="-30" as="targetPoint" />
          </mxGeometry>
        </mxCell>
        <mxCell id="TgJVJYoceKgYgHXK6Og4-21" value="" style="edgeStyle=orthogonalEdgeStyle;rounded=0;orthogonalLoop=1;jettySize=auto;html=1;" edge="1" parent="1" source="TgJVJYoceKgYgHXK6Og4-1" target="TgJVJYoceKgYgHXK6Og4-18">
          <mxGeometry relative="1" as="geometry" />
        </mxCell>
        <mxCell id="TgJVJYoceKgYgHXK6Og4-1" value="S" style="ellipse;whiteSpace=wrap;html=1;aspect=fixed;" vertex="1" parent="1">
          <mxGeometry x="100" y="40" width="80" height="80" as="geometry" />
        </mxCell>
        <mxCell id="TgJVJYoceKgYgHXK6Og4-2" value="F" style="ellipse;whiteSpace=wrap;html=1;aspect=fixed;" vertex="1" parent="1">
          <mxGeometry x="260" y="40" width="80" height="80" as="geometry" />
        </mxCell>
        <mxCell id="TgJVJYoceKgYgHXK6Og4-48" value="" style="edgeStyle=orthogonalEdgeStyle;rounded=0;orthogonalLoop=1;jettySize=auto;html=1;" edge="1" parent="1" source="TgJVJYoceKgYgHXK6Og4-4" target="TgJVJYoceKgYgHXK6Og4-10">
          <mxGeometry relative="1" as="geometry" />
        </mxCell>
        <mxCell id="TgJVJYoceKgYgHXK6Og4-4" value="F" style="ellipse;whiteSpace=wrap;html=1;aspect=fixed;" vertex="1" parent="1">
          <mxGeometry x="420" y="40" width="80" height="80" as="geometry" />
        </mxCell>
        <mxCell id="TgJVJYoceKgYgHXK6Og4-49" value="" style="edgeStyle=orthogonalEdgeStyle;rounded=0;orthogonalLoop=1;jettySize=auto;html=1;" edge="1" parent="1" source="TgJVJYoceKgYgHXK6Og4-6" target="TgJVJYoceKgYgHXK6Og4-8">
          <mxGeometry relative="1" as="geometry" />
        </mxCell>
        <mxCell id="TgJVJYoceKgYgHXK6Og4-6" value="F" style="ellipse;whiteSpace=wrap;html=1;aspect=fixed;" vertex="1" parent="1">
          <mxGeometry x="580" y="40" width="80" height="80" as="geometry" />
        </mxCell>
        <mxCell id="TgJVJYoceKgYgHXK6Og4-13" value="" style="edgeStyle=orthogonalEdgeStyle;rounded=0;orthogonalLoop=1;jettySize=auto;html=1;" edge="1" parent="1" source="TgJVJYoceKgYgHXK6Og4-8" target="TgJVJYoceKgYgHXK6Og4-10">
          <mxGeometry relative="1" as="geometry" />
        </mxCell>
        <mxCell id="TgJVJYoceKgYgHXK6Og4-8" value="F" style="ellipse;whiteSpace=wrap;html=1;aspect=fixed;" vertex="1" parent="1">
          <mxGeometry x="580" y="200" width="80" height="80" as="geometry" />
        </mxCell>
        <mxCell id="TgJVJYoceKgYgHXK6Og4-12" value="10" style="edgeStyle=orthogonalEdgeStyle;rounded=0;orthogonalLoop=1;jettySize=auto;html=1;" edge="1" parent="1" source="TgJVJYoceKgYgHXK6Og4-10" target="TgJVJYoceKgYgHXK6Og4-8">
          <mxGeometry relative="1" as="geometry" />
        </mxCell>
        <mxCell id="TgJVJYoceKgYgHXK6Og4-65" value="" style="edgeStyle=orthogonalEdgeStyle;rounded=0;orthogonalLoop=1;jettySize=auto;html=1;" edge="1" parent="1" source="TgJVJYoceKgYgHXK6Og4-10" target="TgJVJYoceKgYgHXK6Og4-50">
          <mxGeometry relative="1" as="geometry" />
        </mxCell>
        <mxCell id="TgJVJYoceKgYgHXK6Og4-10" value="F" style="ellipse;whiteSpace=wrap;html=1;aspect=fixed;" vertex="1" parent="1">
          <mxGeometry x="420" y="200" width="80" height="80" as="geometry" />
        </mxCell>
        <mxCell id="TgJVJYoceKgYgHXK6Og4-14" value="D" style="ellipse;whiteSpace=wrap;html=1;aspect=fixed;" vertex="1" parent="1">
          <mxGeometry x="260" y="200" width="80" height="80" as="geometry" />
        </mxCell>
        <mxCell id="TgJVJYoceKgYgHXK6Og4-20" value="" style="edgeStyle=orthogonalEdgeStyle;rounded=0;orthogonalLoop=1;jettySize=auto;html=1;" edge="1" parent="1" source="TgJVJYoceKgYgHXK6Og4-18" target="TgJVJYoceKgYgHXK6Og4-1">
          <mxGeometry relative="1" as="geometry" />
        </mxCell>
        <mxCell id="TgJVJYoceKgYgHXK6Og4-23" value="" style="edgeStyle=orthogonalEdgeStyle;rounded=0;orthogonalLoop=1;jettySize=auto;html=1;" edge="1" parent="1" source="TgJVJYoceKgYgHXK6Og4-18" target="TgJVJYoceKgYgHXK6Og4-22">
          <mxGeometry relative="1" as="geometry" />
        </mxCell>
        <mxCell id="TgJVJYoceKgYgHXK6Og4-18" value="F" style="ellipse;whiteSpace=wrap;html=1;aspect=fixed;" vertex="1" parent="1">
          <mxGeometry x="100" y="200" width="80" height="80" as="geometry" />
        </mxCell>
        <mxCell id="TgJVJYoceKgYgHXK6Og4-25" value="" style="edgeStyle=orthogonalEdgeStyle;rounded=0;orthogonalLoop=1;jettySize=auto;html=1;" edge="1" parent="1" source="TgJVJYoceKgYgHXK6Og4-22" target="TgJVJYoceKgYgHXK6Og4-24">
          <mxGeometry relative="1" as="geometry" />
        </mxCell>
        <mxCell id="TgJVJYoceKgYgHXK6Og4-39" value="10" style="edgeStyle=orthogonalEdgeStyle;rounded=0;orthogonalLoop=1;jettySize=auto;html=1;entryX=0.5;entryY=1;entryDx=0;entryDy=0;" edge="1" parent="1" source="TgJVJYoceKgYgHXK6Og4-22" target="TgJVJYoceKgYgHXK6Og4-18">
          <mxGeometry relative="1" as="geometry" />
        </mxCell>
        <mxCell id="TgJVJYoceKgYgHXK6Og4-22" value="F" style="ellipse;whiteSpace=wrap;html=1;aspect=fixed;" vertex="1" parent="1">
          <mxGeometry x="100" y="360" width="80" height="80" as="geometry" />
        </mxCell>
        <mxCell id="TgJVJYoceKgYgHXK6Og4-27" value="" style="edgeStyle=orthogonalEdgeStyle;rounded=0;orthogonalLoop=1;jettySize=auto;html=1;exitX=1;exitY=0.5;exitDx=0;exitDy=0;" edge="1" parent="1" source="TgJVJYoceKgYgHXK6Og4-24" target="TgJVJYoceKgYgHXK6Og4-26">
          <mxGeometry relative="1" as="geometry">
            <mxPoint x="170" y="560" as="sourcePoint" />
          </mxGeometry>
        </mxCell>
        <mxCell id="TgJVJYoceKgYgHXK6Og4-40" value="10" style="edgeStyle=orthogonalEdgeStyle;rounded=0;orthogonalLoop=1;jettySize=auto;html=1;" edge="1" parent="1" source="TgJVJYoceKgYgHXK6Og4-24" target="TgJVJYoceKgYgHXK6Og4-22">
          <mxGeometry relative="1" as="geometry" />
        </mxCell>
        <mxCell id="TgJVJYoceKgYgHXK6Og4-24" value="F" style="ellipse;whiteSpace=wrap;html=1;aspect=fixed;" vertex="1" parent="1">
          <mxGeometry x="100" y="520" width="80" height="80" as="geometry" />
        </mxCell>
        <mxCell id="TgJVJYoceKgYgHXK6Og4-29" value="" style="edgeStyle=orthogonalEdgeStyle;rounded=0;orthogonalLoop=1;jettySize=auto;html=1;exitX=1;exitY=0.5;exitDx=0;exitDy=0;" edge="1" parent="1" source="TgJVJYoceKgYgHXK6Og4-26" target="TgJVJYoceKgYgHXK6Og4-28">
          <mxGeometry relative="1" as="geometry" />
        </mxCell>
        <mxCell id="TgJVJYoceKgYgHXK6Og4-41" value="10" style="edgeStyle=orthogonalEdgeStyle;rounded=0;orthogonalLoop=1;jettySize=auto;html=1;entryX=1;entryY=0.5;entryDx=0;entryDy=0;" edge="1" parent="1" source="TgJVJYoceKgYgHXK6Og4-26" target="TgJVJYoceKgYgHXK6Og4-24">
          <mxGeometry relative="1" as="geometry" />
        </mxCell>
        <mxCell id="TgJVJYoceKgYgHXK6Og4-60" value="" style="edgeStyle=orthogonalEdgeStyle;rounded=0;orthogonalLoop=1;jettySize=auto;html=1;" edge="1" parent="1" source="TgJVJYoceKgYgHXK6Og4-26" target="TgJVJYoceKgYgHXK6Og4-53">
          <mxGeometry relative="1" as="geometry" />
        </mxCell>
        <mxCell id="TgJVJYoceKgYgHXK6Og4-26" value="F" style="ellipse;whiteSpace=wrap;html=1;aspect=fixed;" vertex="1" parent="1">
          <mxGeometry x="260" y="520" width="80" height="80" as="geometry" />
        </mxCell>
        <mxCell id="TgJVJYoceKgYgHXK6Og4-42" value="10" style="edgeStyle=orthogonalEdgeStyle;rounded=0;orthogonalLoop=1;jettySize=auto;html=1;" edge="1" parent="1" source="TgJVJYoceKgYgHXK6Og4-28" target="TgJVJYoceKgYgHXK6Og4-26">
          <mxGeometry relative="1" as="geometry" />
        </mxCell>
        <mxCell id="TgJVJYoceKgYgHXK6Og4-58" value="" style="edgeStyle=orthogonalEdgeStyle;rounded=0;orthogonalLoop=1;jettySize=auto;html=1;" edge="1" parent="1" source="TgJVJYoceKgYgHXK6Og4-28" target="TgJVJYoceKgYgHXK6Og4-50">
          <mxGeometry relative="1" as="geometry" />
        </mxCell>
        <mxCell id="TgJVJYoceKgYgHXK6Og4-28" value="F" style="ellipse;whiteSpace=wrap;html=1;aspect=fixed;" vertex="1" parent="1">
          <mxGeometry x="420" y="520" width="80" height="80" as="geometry" />
        </mxCell>
        <mxCell id="TgJVJYoceKgYgHXK6Og4-30" value="G" style="ellipse;whiteSpace=wrap;html=1;aspect=fixed;" vertex="1" parent="1">
          <mxGeometry x="580" y="520" width="80" height="80" as="geometry" />
        </mxCell>
        <mxCell id="TgJVJYoceKgYgHXK6Og4-32" value="D" style="ellipse;whiteSpace=wrap;html=1;aspect=fixed;" vertex="1" parent="1">
          <mxGeometry x="580" y="360" width="80" height="80" as="geometry" />
        </mxCell>
        <mxCell id="TgJVJYoceKgYgHXK6Og4-43" value="" style="endArrow=classic;startArrow=classic;html=1;rounded=0;exitX=1;exitY=0.5;exitDx=0;exitDy=0;" edge="1" parent="1" source="TgJVJYoceKgYgHXK6Og4-1">
          <mxGeometry width="50" height="50" relative="1" as="geometry">
            <mxPoint x="210" y="130" as="sourcePoint" />
            <mxPoint x="260" y="80" as="targetPoint" />
          </mxGeometry>
        </mxCell>
        <mxCell id="TgJVJYoceKgYgHXK6Og4-44" value="10" style="endArrow=classic;startArrow=classic;html=1;rounded=0;exitX=1;exitY=0.5;exitDx=0;exitDy=0;" edge="1" parent="1">
          <mxGeometry width="50" height="50" relative="1" as="geometry">
            <mxPoint x="340" y="82" as="sourcePoint" />
            <mxPoint x="420" y="82" as="targetPoint" />
          </mxGeometry>
        </mxCell>
        <mxCell id="TgJVJYoceKgYgHXK6Og4-45" value="10" style="endArrow=classic;startArrow=classic;html=1;rounded=0;exitX=1;exitY=0.5;exitDx=0;exitDy=0;" edge="1" parent="1">
          <mxGeometry width="50" height="50" relative="1" as="geometry">
            <mxPoint x="500" y="79.33" as="sourcePoint" />
            <mxPoint x="580" y="79.33" as="targetPoint" />
          </mxGeometry>
        </mxCell>
        <mxCell id="TgJVJYoceKgYgHXK6Og4-46" value="10" style="edgeStyle=orthogonalEdgeStyle;rounded=0;orthogonalLoop=1;jettySize=auto;html=1;" edge="1" parent="1">
          <mxGeometry relative="1" as="geometry">
            <mxPoint x="620" y="199" as="sourcePoint" />
            <mxPoint x="620" y="119" as="targetPoint" />
          </mxGeometry>
        </mxCell>
        <mxCell id="TgJVJYoceKgYgHXK6Og4-47" value="10" style="edgeStyle=orthogonalEdgeStyle;rounded=0;orthogonalLoop=1;jettySize=auto;html=1;" edge="1" parent="1">
          <mxGeometry relative="1" as="geometry">
            <mxPoint x="460" y="199" as="sourcePoint" />
            <mxPoint x="460" y="119" as="targetPoint" />
          </mxGeometry>
        </mxCell>
        <mxCell id="TgJVJYoceKgYgHXK6Og4-54" value="" style="edgeStyle=orthogonalEdgeStyle;rounded=0;orthogonalLoop=1;jettySize=auto;html=1;" edge="1" parent="1" source="TgJVJYoceKgYgHXK6Og4-50" target="TgJVJYoceKgYgHXK6Og4-53">
          <mxGeometry relative="1" as="geometry" />
        </mxCell>
        <mxCell id="TgJVJYoceKgYgHXK6Og4-57" value="10" style="edgeStyle=orthogonalEdgeStyle;rounded=0;orthogonalLoop=1;jettySize=auto;html=1;" edge="1" parent="1" source="TgJVJYoceKgYgHXK6Og4-50" target="TgJVJYoceKgYgHXK6Og4-28">
          <mxGeometry relative="1" as="geometry" />
        </mxCell>
        <mxCell id="TgJVJYoceKgYgHXK6Og4-64" value="" style="edgeStyle=orthogonalEdgeStyle;rounded=0;orthogonalLoop=1;jettySize=auto;html=1;" edge="1" parent="1" source="TgJVJYoceKgYgHXK6Og4-50" target="TgJVJYoceKgYgHXK6Og4-10">
          <mxGeometry relative="1" as="geometry" />
        </mxCell>
        <mxCell id="TgJVJYoceKgYgHXK6Og4-79" value="10" style="edgeLabel;html=1;align=center;verticalAlign=middle;resizable=0;points=[];" vertex="1" connectable="0" parent="TgJVJYoceKgYgHXK6Og4-64">
          <mxGeometry x="-0.0419" y="1" relative="1" as="geometry">
            <mxPoint as="offset" />
          </mxGeometry>
        </mxCell>
        <mxCell id="TgJVJYoceKgYgHXK6Og4-50" value="F" style="ellipse;whiteSpace=wrap;html=1;aspect=fixed;" vertex="1" parent="1">
          <mxGeometry x="420" y="360" width="80" height="80" as="geometry" />
        </mxCell>
        <mxCell id="TgJVJYoceKgYgHXK6Og4-55" value="" style="edgeStyle=orthogonalEdgeStyle;rounded=0;orthogonalLoop=1;jettySize=auto;html=1;" edge="1" parent="1" source="TgJVJYoceKgYgHXK6Og4-53" target="TgJVJYoceKgYgHXK6Og4-22">
          <mxGeometry relative="1" as="geometry" />
        </mxCell>
        <mxCell id="TgJVJYoceKgYgHXK6Og4-56" value="10" style="edgeStyle=orthogonalEdgeStyle;rounded=0;orthogonalLoop=1;jettySize=auto;html=1;" edge="1" parent="1" source="TgJVJYoceKgYgHXK6Og4-53" target="TgJVJYoceKgYgHXK6Og4-26">
          <mxGeometry relative="1" as="geometry" />
        </mxCell>
        <mxCell id="TgJVJYoceKgYgHXK6Og4-59" value="10" style="edgeStyle=orthogonalEdgeStyle;rounded=0;orthogonalLoop=1;jettySize=auto;html=1;" edge="1" parent="1" source="TgJVJYoceKgYgHXK6Og4-53" target="TgJVJYoceKgYgHXK6Og4-50">
          <mxGeometry relative="1" as="geometry" />
        </mxCell>
        <mxCell id="TgJVJYoceKgYgHXK6Og4-53" value="F" style="ellipse;whiteSpace=wrap;html=1;aspect=fixed;" vertex="1" parent="1">
          <mxGeometry x="260" y="360" width="80" height="80" as="geometry" />
        </mxCell>
        <mxCell id="TgJVJYoceKgYgHXK6Og4-61" value="" style="edgeStyle=orthogonalEdgeStyle;rounded=0;orthogonalLoop=1;jettySize=auto;html=1;" edge="1" parent="1">
          <mxGeometry relative="1" as="geometry">
            <mxPoint x="259" y="399.33" as="sourcePoint" />
            <mxPoint x="179" y="399.33" as="targetPoint" />
          </mxGeometry>
        </mxCell>
        <mxCell id="TgJVJYoceKgYgHXK6Og4-62" value="10" style="edgeStyle=orthogonalEdgeStyle;rounded=0;orthogonalLoop=1;jettySize=auto;html=1;" edge="1" parent="1">
          <mxGeometry relative="1" as="geometry">
            <mxPoint x="179" y="399.33" as="sourcePoint" />
            <mxPoint x="259" y="399.33" as="targetPoint" />
          </mxGeometry>
        </mxCell>
        <mxCell id="TgJVJYoceKgYgHXK6Og4-68" value="1" style="text;html=1;align=center;verticalAlign=middle;resizable=0;points=[];autosize=1;strokeColor=none;fillColor=none;" vertex="1" parent="1">
          <mxGeometry x="175" y="48" width="30" height="30" as="geometry" />
        </mxCell>
        <mxCell id="TgJVJYoceKgYgHXK6Og4-69" value="10" style="text;html=1;align=center;verticalAlign=middle;resizable=0;points=[];autosize=1;strokeColor=none;fillColor=none;" vertex="1" parent="1">
          <mxGeometry x="230" y="48" width="40" height="30" as="geometry" />
        </mxCell>
        <mxCell id="TgJVJYoceKgYgHXK6Og4-70" value="1" style="text;html=1;align=center;verticalAlign=middle;resizable=0;points=[];autosize=1;strokeColor=none;fillColor=none;" vertex="1" parent="1">
          <mxGeometry x="100" y="120" width="30" height="30" as="geometry" />
        </mxCell>
        <mxCell id="TgJVJYoceKgYgHXK6Og4-71" value="10" style="text;html=1;align=center;verticalAlign=middle;resizable=0;points=[];autosize=1;strokeColor=none;fillColor=none;" vertex="1" parent="1">
          <mxGeometry x="95" y="170" width="40" height="30" as="geometry" />
        </mxCell>
        <mxCell id="TgJVJYoceKgYgHXK6Og4-80" value="10" style="text;html=1;align=center;verticalAlign=middle;resizable=0;points=[];autosize=1;strokeColor=none;fillColor=none;" vertex="1" parent="1">
          <mxGeometry x="380" y="210" width="40" height="30" as="geometry" />
        </mxCell>
        <mxCell id="TgJVJYoceKgYgHXK6Og4-82" value="" style="edgeStyle=orthogonalEdgeStyle;rounded=0;orthogonalLoop=1;jettySize=auto;html=1;" edge="1" parent="1" source="TgJVJYoceKgYgHXK6Og4-83" target="TgJVJYoceKgYgHXK6Og4-97">
          <mxGeometry relative="1" as="geometry" />
        </mxCell>
        <mxCell id="TgJVJYoceKgYgHXK6Og4-83" value="S" style="ellipse;whiteSpace=wrap;html=1;aspect=fixed;" vertex="1" parent="1">
          <mxGeometry x="837.5" y="540" width="80" height="80" as="geometry" />
        </mxCell>
        <mxCell id="TgJVJYoceKgYgHXK6Og4-84" value="F" style="ellipse;whiteSpace=wrap;html=1;aspect=fixed;" vertex="1" parent="1">
          <mxGeometry x="997.5" y="540" width="80" height="80" as="geometry" />
        </mxCell>
        <mxCell id="TgJVJYoceKgYgHXK6Og4-85" value="" style="edgeStyle=orthogonalEdgeStyle;rounded=0;orthogonalLoop=1;jettySize=auto;html=1;" edge="1" parent="1" source="TgJVJYoceKgYgHXK6Og4-86" target="TgJVJYoceKgYgHXK6Og4-93">
          <mxGeometry relative="1" as="geometry" />
        </mxCell>
        <mxCell id="TgJVJYoceKgYgHXK6Og4-86" value="F" style="ellipse;whiteSpace=wrap;html=1;aspect=fixed;" vertex="1" parent="1">
          <mxGeometry x="1157.5" y="540" width="80" height="80" as="geometry" />
        </mxCell>
        <mxCell id="TgJVJYoceKgYgHXK6Og4-87" value="" style="edgeStyle=orthogonalEdgeStyle;rounded=0;orthogonalLoop=1;jettySize=auto;html=1;" edge="1" parent="1" source="TgJVJYoceKgYgHXK6Og4-88" target="TgJVJYoceKgYgHXK6Og4-90">
          <mxGeometry relative="1" as="geometry" />
        </mxCell>
        <mxCell id="TgJVJYoceKgYgHXK6Og4-88" value="F" style="ellipse;whiteSpace=wrap;html=1;aspect=fixed;" vertex="1" parent="1">
          <mxGeometry x="1317.5" y="540" width="80" height="80" as="geometry" />
        </mxCell>
        <mxCell id="TgJVJYoceKgYgHXK6Og4-89" value="" style="edgeStyle=orthogonalEdgeStyle;rounded=0;orthogonalLoop=1;jettySize=auto;html=1;" edge="1" parent="1" source="TgJVJYoceKgYgHXK6Og4-90" target="TgJVJYoceKgYgHXK6Og4-93">
          <mxGeometry relative="1" as="geometry" />
        </mxCell>
        <mxCell id="TgJVJYoceKgYgHXK6Og4-290" style="edgeStyle=orthogonalEdgeStyle;rounded=0;orthogonalLoop=1;jettySize=auto;html=1;exitX=0.5;exitY=1;exitDx=0;exitDy=0;entryX=0.5;entryY=0;entryDx=0;entryDy=0;" edge="1" parent="1" source="TgJVJYoceKgYgHXK6Og4-90" target="TgJVJYoceKgYgHXK6Og4-112">
          <mxGeometry relative="1" as="geometry" />
        </mxCell>
        <mxCell id="TgJVJYoceKgYgHXK6Og4-90" value="F" style="ellipse;whiteSpace=wrap;html=1;aspect=fixed;" vertex="1" parent="1">
          <mxGeometry x="1317.5" y="700" width="80" height="80" as="geometry" />
        </mxCell>
        <mxCell id="TgJVJYoceKgYgHXK6Og4-91" value="10" style="edgeStyle=orthogonalEdgeStyle;rounded=0;orthogonalLoop=1;jettySize=auto;html=1;" edge="1" parent="1" source="TgJVJYoceKgYgHXK6Og4-93" target="TgJVJYoceKgYgHXK6Og4-90">
          <mxGeometry relative="1" as="geometry" />
        </mxCell>
        <mxCell id="TgJVJYoceKgYgHXK6Og4-92" value="" style="edgeStyle=orthogonalEdgeStyle;rounded=0;orthogonalLoop=1;jettySize=auto;html=1;" edge="1" parent="1" source="TgJVJYoceKgYgHXK6Og4-93" target="TgJVJYoceKgYgHXK6Og4-122">
          <mxGeometry relative="1" as="geometry" />
        </mxCell>
        <mxCell id="TgJVJYoceKgYgHXK6Og4-93" value="F" style="ellipse;whiteSpace=wrap;html=1;aspect=fixed;" vertex="1" parent="1">
          <mxGeometry x="1157.5" y="700" width="80" height="80" as="geometry" />
        </mxCell>
        <mxCell id="TgJVJYoceKgYgHXK6Og4-94" value="D" style="ellipse;whiteSpace=wrap;html=1;aspect=fixed;" vertex="1" parent="1">
          <mxGeometry x="997.5" y="700" width="80" height="80" as="geometry" />
        </mxCell>
        <mxCell id="TgJVJYoceKgYgHXK6Og4-95" value="" style="edgeStyle=orthogonalEdgeStyle;rounded=0;orthogonalLoop=1;jettySize=auto;html=1;" edge="1" parent="1" source="TgJVJYoceKgYgHXK6Og4-97" target="TgJVJYoceKgYgHXK6Og4-83">
          <mxGeometry relative="1" as="geometry" />
        </mxCell>
        <mxCell id="TgJVJYoceKgYgHXK6Og4-96" value="" style="edgeStyle=orthogonalEdgeStyle;rounded=0;orthogonalLoop=1;jettySize=auto;html=1;" edge="1" parent="1" source="TgJVJYoceKgYgHXK6Og4-97" target="TgJVJYoceKgYgHXK6Og4-100">
          <mxGeometry relative="1" as="geometry" />
        </mxCell>
        <mxCell id="TgJVJYoceKgYgHXK6Og4-97" value="F" style="ellipse;whiteSpace=wrap;html=1;aspect=fixed;" vertex="1" parent="1">
          <mxGeometry x="837.5" y="700" width="80" height="80" as="geometry" />
        </mxCell>
        <mxCell id="TgJVJYoceKgYgHXK6Og4-98" value="" style="edgeStyle=orthogonalEdgeStyle;rounded=0;orthogonalLoop=1;jettySize=auto;html=1;" edge="1" parent="1" source="TgJVJYoceKgYgHXK6Og4-100" target="TgJVJYoceKgYgHXK6Og4-103">
          <mxGeometry relative="1" as="geometry" />
        </mxCell>
        <mxCell id="TgJVJYoceKgYgHXK6Og4-99" value="10" style="edgeStyle=orthogonalEdgeStyle;rounded=0;orthogonalLoop=1;jettySize=auto;html=1;entryX=0.5;entryY=1;entryDx=0;entryDy=0;" edge="1" parent="1" source="TgJVJYoceKgYgHXK6Og4-100" target="TgJVJYoceKgYgHXK6Og4-97">
          <mxGeometry relative="1" as="geometry" />
        </mxCell>
        <mxCell id="TgJVJYoceKgYgHXK6Og4-100" value="F" style="ellipse;whiteSpace=wrap;html=1;aspect=fixed;" vertex="1" parent="1">
          <mxGeometry x="837.5" y="860" width="80" height="80" as="geometry" />
        </mxCell>
        <mxCell id="TgJVJYoceKgYgHXK6Og4-101" value="" style="edgeStyle=orthogonalEdgeStyle;rounded=0;orthogonalLoop=1;jettySize=auto;html=1;exitX=1;exitY=0.5;exitDx=0;exitDy=0;" edge="1" parent="1" source="TgJVJYoceKgYgHXK6Og4-103" target="TgJVJYoceKgYgHXK6Og4-107">
          <mxGeometry relative="1" as="geometry">
            <mxPoint x="907.5" y="1060" as="sourcePoint" />
          </mxGeometry>
        </mxCell>
        <mxCell id="TgJVJYoceKgYgHXK6Og4-102" value="10" style="edgeStyle=orthogonalEdgeStyle;rounded=0;orthogonalLoop=1;jettySize=auto;html=1;" edge="1" parent="1" source="TgJVJYoceKgYgHXK6Og4-103" target="TgJVJYoceKgYgHXK6Og4-100">
          <mxGeometry relative="1" as="geometry" />
        </mxCell>
        <mxCell id="TgJVJYoceKgYgHXK6Og4-103" value="F" style="ellipse;whiteSpace=wrap;html=1;aspect=fixed;" vertex="1" parent="1">
          <mxGeometry x="837.5" y="1020" width="80" height="80" as="geometry" />
        </mxCell>
        <mxCell id="TgJVJYoceKgYgHXK6Og4-104" value="" style="edgeStyle=orthogonalEdgeStyle;rounded=0;orthogonalLoop=1;jettySize=auto;html=1;exitX=1;exitY=0.5;exitDx=0;exitDy=0;" edge="1" parent="1" source="TgJVJYoceKgYgHXK6Og4-107" target="TgJVJYoceKgYgHXK6Og4-110">
          <mxGeometry relative="1" as="geometry" />
        </mxCell>
        <mxCell id="TgJVJYoceKgYgHXK6Og4-105" value="10" style="edgeStyle=orthogonalEdgeStyle;rounded=0;orthogonalLoop=1;jettySize=auto;html=1;entryX=1;entryY=0.5;entryDx=0;entryDy=0;" edge="1" parent="1" source="TgJVJYoceKgYgHXK6Og4-107" target="TgJVJYoceKgYgHXK6Og4-103">
          <mxGeometry relative="1" as="geometry" />
        </mxCell>
        <mxCell id="TgJVJYoceKgYgHXK6Og4-106" value="" style="edgeStyle=orthogonalEdgeStyle;rounded=0;orthogonalLoop=1;jettySize=auto;html=1;" edge="1" parent="1" source="TgJVJYoceKgYgHXK6Og4-107" target="TgJVJYoceKgYgHXK6Og4-126">
          <mxGeometry relative="1" as="geometry" />
        </mxCell>
        <mxCell id="TgJVJYoceKgYgHXK6Og4-107" value="F" style="ellipse;whiteSpace=wrap;html=1;aspect=fixed;" vertex="1" parent="1">
          <mxGeometry x="997.5" y="1020" width="80" height="80" as="geometry" />
        </mxCell>
        <mxCell id="TgJVJYoceKgYgHXK6Og4-108" value="10" style="edgeStyle=orthogonalEdgeStyle;rounded=0;orthogonalLoop=1;jettySize=auto;html=1;" edge="1" parent="1" source="TgJVJYoceKgYgHXK6Og4-110" target="TgJVJYoceKgYgHXK6Og4-107">
          <mxGeometry relative="1" as="geometry" />
        </mxCell>
        <mxCell id="TgJVJYoceKgYgHXK6Og4-109" value="" style="edgeStyle=orthogonalEdgeStyle;rounded=0;orthogonalLoop=1;jettySize=auto;html=1;" edge="1" parent="1" source="TgJVJYoceKgYgHXK6Og4-110" target="TgJVJYoceKgYgHXK6Og4-122">
          <mxGeometry relative="1" as="geometry" />
        </mxCell>
        <mxCell id="TgJVJYoceKgYgHXK6Og4-110" value="F" style="ellipse;whiteSpace=wrap;html=1;aspect=fixed;" vertex="1" parent="1">
          <mxGeometry x="1157.5" y="1020" width="80" height="80" as="geometry" />
        </mxCell>
        <mxCell id="TgJVJYoceKgYgHXK6Og4-111" value="G" style="ellipse;whiteSpace=wrap;html=1;aspect=fixed;" vertex="1" parent="1">
          <mxGeometry x="1317.5" y="1020" width="80" height="80" as="geometry" />
        </mxCell>
        <mxCell id="TgJVJYoceKgYgHXK6Og4-291" style="edgeStyle=orthogonalEdgeStyle;rounded=0;orthogonalLoop=1;jettySize=auto;html=1;exitX=0.5;exitY=0;exitDx=0;exitDy=0;entryX=0.5;entryY=1;entryDx=0;entryDy=0;" edge="1" parent="1" source="TgJVJYoceKgYgHXK6Og4-112" target="TgJVJYoceKgYgHXK6Og4-90">
          <mxGeometry relative="1" as="geometry" />
        </mxCell>
        <mxCell id="TgJVJYoceKgYgHXK6Og4-294" style="edgeStyle=orthogonalEdgeStyle;rounded=0;orthogonalLoop=1;jettySize=auto;html=1;exitX=0;exitY=0.5;exitDx=0;exitDy=0;entryX=1;entryY=0.5;entryDx=0;entryDy=0;" edge="1" parent="1" source="TgJVJYoceKgYgHXK6Og4-112" target="TgJVJYoceKgYgHXK6Og4-122">
          <mxGeometry relative="1" as="geometry" />
        </mxCell>
        <mxCell id="TgJVJYoceKgYgHXK6Og4-112" value="D" style="ellipse;whiteSpace=wrap;html=1;aspect=fixed;" vertex="1" parent="1">
          <mxGeometry x="1317.5" y="860" width="80" height="80" as="geometry" />
        </mxCell>
        <mxCell id="TgJVJYoceKgYgHXK6Og4-113" value="" style="endArrow=classic;startArrow=classic;html=1;rounded=0;exitX=1;exitY=0.5;exitDx=0;exitDy=0;" edge="1" parent="1" source="TgJVJYoceKgYgHXK6Og4-83">
          <mxGeometry width="50" height="50" relative="1" as="geometry">
            <mxPoint x="947.5" y="630" as="sourcePoint" />
            <mxPoint x="997.5" y="580" as="targetPoint" />
          </mxGeometry>
        </mxCell>
        <mxCell id="TgJVJYoceKgYgHXK6Og4-114" value="10" style="endArrow=classic;startArrow=classic;html=1;rounded=0;exitX=1;exitY=0.5;exitDx=0;exitDy=0;" edge="1" parent="1">
          <mxGeometry width="50" height="50" relative="1" as="geometry">
            <mxPoint x="1077.5" y="582" as="sourcePoint" />
            <mxPoint x="1157.5" y="582" as="targetPoint" />
          </mxGeometry>
        </mxCell>
        <mxCell id="TgJVJYoceKgYgHXK6Og4-115" value="10" style="endArrow=classic;startArrow=classic;html=1;rounded=0;exitX=1;exitY=0.5;exitDx=0;exitDy=0;" edge="1" parent="1">
          <mxGeometry width="50" height="50" relative="1" as="geometry">
            <mxPoint x="1237.5" y="579.33" as="sourcePoint" />
            <mxPoint x="1317.5" y="579.33" as="targetPoint" />
          </mxGeometry>
        </mxCell>
        <mxCell id="TgJVJYoceKgYgHXK6Og4-116" value="10" style="edgeStyle=orthogonalEdgeStyle;rounded=0;orthogonalLoop=1;jettySize=auto;html=1;" edge="1" parent="1">
          <mxGeometry relative="1" as="geometry">
            <mxPoint x="1357.5" y="699" as="sourcePoint" />
            <mxPoint x="1357.5" y="619" as="targetPoint" />
          </mxGeometry>
        </mxCell>
        <mxCell id="TgJVJYoceKgYgHXK6Og4-117" value="10" style="edgeStyle=orthogonalEdgeStyle;rounded=0;orthogonalLoop=1;jettySize=auto;html=1;" edge="1" parent="1">
          <mxGeometry relative="1" as="geometry">
            <mxPoint x="1197.5" y="699" as="sourcePoint" />
            <mxPoint x="1197.5" y="619" as="targetPoint" />
          </mxGeometry>
        </mxCell>
        <mxCell id="TgJVJYoceKgYgHXK6Og4-118" value="" style="edgeStyle=orthogonalEdgeStyle;rounded=0;orthogonalLoop=1;jettySize=auto;html=1;" edge="1" parent="1" source="TgJVJYoceKgYgHXK6Og4-122" target="TgJVJYoceKgYgHXK6Og4-126">
          <mxGeometry relative="1" as="geometry" />
        </mxCell>
        <mxCell id="TgJVJYoceKgYgHXK6Og4-119" value="10" style="edgeStyle=orthogonalEdgeStyle;rounded=0;orthogonalLoop=1;jettySize=auto;html=1;" edge="1" parent="1" source="TgJVJYoceKgYgHXK6Og4-122" target="TgJVJYoceKgYgHXK6Og4-110">
          <mxGeometry relative="1" as="geometry" />
        </mxCell>
        <mxCell id="TgJVJYoceKgYgHXK6Og4-120" value="" style="edgeStyle=orthogonalEdgeStyle;rounded=0;orthogonalLoop=1;jettySize=auto;html=1;" edge="1" parent="1" source="TgJVJYoceKgYgHXK6Og4-122" target="TgJVJYoceKgYgHXK6Og4-93">
          <mxGeometry relative="1" as="geometry" />
        </mxCell>
        <mxCell id="TgJVJYoceKgYgHXK6Og4-121" value="10" style="edgeLabel;html=1;align=center;verticalAlign=middle;resizable=0;points=[];" vertex="1" connectable="0" parent="TgJVJYoceKgYgHXK6Og4-120">
          <mxGeometry x="-0.0419" y="1" relative="1" as="geometry">
            <mxPoint as="offset" />
          </mxGeometry>
        </mxCell>
        <mxCell id="TgJVJYoceKgYgHXK6Og4-293" style="edgeStyle=orthogonalEdgeStyle;rounded=0;orthogonalLoop=1;jettySize=auto;html=1;entryX=0;entryY=0.5;entryDx=0;entryDy=0;" edge="1" parent="1" source="TgJVJYoceKgYgHXK6Og4-122" target="TgJVJYoceKgYgHXK6Og4-112">
          <mxGeometry relative="1" as="geometry" />
        </mxCell>
        <mxCell id="TgJVJYoceKgYgHXK6Og4-122" value="F" style="ellipse;whiteSpace=wrap;html=1;aspect=fixed;" vertex="1" parent="1">
          <mxGeometry x="1157.5" y="860" width="80" height="80" as="geometry" />
        </mxCell>
        <mxCell id="TgJVJYoceKgYgHXK6Og4-123" value="" style="edgeStyle=orthogonalEdgeStyle;rounded=0;orthogonalLoop=1;jettySize=auto;html=1;" edge="1" parent="1" source="TgJVJYoceKgYgHXK6Og4-126" target="TgJVJYoceKgYgHXK6Og4-100">
          <mxGeometry relative="1" as="geometry" />
        </mxCell>
        <mxCell id="TgJVJYoceKgYgHXK6Og4-124" value="10" style="edgeStyle=orthogonalEdgeStyle;rounded=0;orthogonalLoop=1;jettySize=auto;html=1;" edge="1" parent="1" source="TgJVJYoceKgYgHXK6Og4-126" target="TgJVJYoceKgYgHXK6Og4-107">
          <mxGeometry relative="1" as="geometry" />
        </mxCell>
        <mxCell id="TgJVJYoceKgYgHXK6Og4-125" value="10" style="edgeStyle=orthogonalEdgeStyle;rounded=0;orthogonalLoop=1;jettySize=auto;html=1;" edge="1" parent="1" source="TgJVJYoceKgYgHXK6Og4-126" target="TgJVJYoceKgYgHXK6Og4-122">
          <mxGeometry relative="1" as="geometry" />
        </mxCell>
        <mxCell id="TgJVJYoceKgYgHXK6Og4-126" value="F" style="ellipse;whiteSpace=wrap;html=1;aspect=fixed;" vertex="1" parent="1">
          <mxGeometry x="997.5" y="860" width="80" height="80" as="geometry" />
        </mxCell>
        <mxCell id="TgJVJYoceKgYgHXK6Og4-127" value="" style="edgeStyle=orthogonalEdgeStyle;rounded=0;orthogonalLoop=1;jettySize=auto;html=1;" edge="1" parent="1">
          <mxGeometry relative="1" as="geometry">
            <mxPoint x="996.5" y="899.3299999999999" as="sourcePoint" />
            <mxPoint x="916.5" y="899.3299999999999" as="targetPoint" />
          </mxGeometry>
        </mxCell>
        <mxCell id="TgJVJYoceKgYgHXK6Og4-128" value="10" style="edgeStyle=orthogonalEdgeStyle;rounded=0;orthogonalLoop=1;jettySize=auto;html=1;" edge="1" parent="1">
          <mxGeometry relative="1" as="geometry">
            <mxPoint x="916.5" y="899.3299999999999" as="sourcePoint" />
            <mxPoint x="996.5" y="899.3299999999999" as="targetPoint" />
          </mxGeometry>
        </mxCell>
        <mxCell id="TgJVJYoceKgYgHXK6Og4-129" value="1" style="text;html=1;align=center;verticalAlign=middle;resizable=0;points=[];autosize=1;strokeColor=none;fillColor=none;" vertex="1" parent="1">
          <mxGeometry x="912.5" y="548" width="30" height="30" as="geometry" />
        </mxCell>
        <mxCell id="TgJVJYoceKgYgHXK6Og4-130" value="10" style="text;html=1;align=center;verticalAlign=middle;resizable=0;points=[];autosize=1;strokeColor=none;fillColor=none;" vertex="1" parent="1">
          <mxGeometry x="967.5" y="548" width="40" height="30" as="geometry" />
        </mxCell>
        <mxCell id="TgJVJYoceKgYgHXK6Og4-131" value="1" style="text;html=1;align=center;verticalAlign=middle;resizable=0;points=[];autosize=1;strokeColor=none;fillColor=none;" vertex="1" parent="1">
          <mxGeometry x="837.5" y="620" width="30" height="30" as="geometry" />
        </mxCell>
        <mxCell id="TgJVJYoceKgYgHXK6Og4-132" value="10" style="text;html=1;align=center;verticalAlign=middle;resizable=0;points=[];autosize=1;strokeColor=none;fillColor=none;" vertex="1" parent="1">
          <mxGeometry x="832.5" y="670" width="40" height="30" as="geometry" />
        </mxCell>
        <mxCell id="TgJVJYoceKgYgHXK6Og4-133" value="10&lt;br&gt;" style="text;html=1;align=center;verticalAlign=middle;resizable=0;points=[];autosize=1;strokeColor=none;fillColor=none;" vertex="1" parent="1">
          <mxGeometry x="917.5" y="700" width="40" height="30" as="geometry" />
        </mxCell>
        <mxCell id="TgJVJYoceKgYgHXK6Og4-134" value="10" style="text;html=1;align=center;verticalAlign=middle;resizable=0;points=[];autosize=1;strokeColor=none;fillColor=none;" vertex="1" parent="1">
          <mxGeometry x="1042.5" y="830" width="40" height="30" as="geometry" />
        </mxCell>
        <mxCell id="TgJVJYoceKgYgHXK6Og4-135" value="10" style="text;html=1;align=center;verticalAlign=middle;resizable=0;points=[];autosize=1;strokeColor=none;fillColor=none;" vertex="1" parent="1">
          <mxGeometry x="1117.5" y="710" width="40" height="30" as="geometry" />
        </mxCell>
        <mxCell id="TgJVJYoceKgYgHXK6Og4-136" value="10" style="text;html=1;align=center;verticalAlign=middle;resizable=0;points=[];autosize=1;strokeColor=none;fillColor=none;" vertex="1" parent="1">
          <mxGeometry x="1037.5" y="620" width="40" height="30" as="geometry" />
        </mxCell>
        <mxCell id="TgJVJYoceKgYgHXK6Og4-137" value="" style="edgeStyle=orthogonalEdgeStyle;rounded=0;orthogonalLoop=1;jettySize=auto;html=1;" edge="1" parent="1" source="TgJVJYoceKgYgHXK6Og4-138" target="TgJVJYoceKgYgHXK6Og4-152">
          <mxGeometry relative="1" as="geometry" />
        </mxCell>
        <mxCell id="TgJVJYoceKgYgHXK6Og4-138" value="S" style="ellipse;whiteSpace=wrap;html=1;aspect=fixed;" vertex="1" parent="1">
          <mxGeometry x="837.5" y="-230" width="80" height="80" as="geometry" />
        </mxCell>
        <mxCell id="TgJVJYoceKgYgHXK6Og4-139" value="F" style="ellipse;whiteSpace=wrap;html=1;aspect=fixed;" vertex="1" parent="1">
          <mxGeometry x="997.5" y="-230" width="80" height="80" as="geometry" />
        </mxCell>
        <mxCell id="TgJVJYoceKgYgHXK6Og4-140" value="" style="edgeStyle=orthogonalEdgeStyle;rounded=0;orthogonalLoop=1;jettySize=auto;html=1;" edge="1" parent="1" source="TgJVJYoceKgYgHXK6Og4-141" target="TgJVJYoceKgYgHXK6Og4-148">
          <mxGeometry relative="1" as="geometry" />
        </mxCell>
        <mxCell id="TgJVJYoceKgYgHXK6Og4-141" value="F" style="ellipse;whiteSpace=wrap;html=1;aspect=fixed;" vertex="1" parent="1">
          <mxGeometry x="1157.5" y="-230" width="80" height="80" as="geometry" />
        </mxCell>
        <mxCell id="TgJVJYoceKgYgHXK6Og4-142" value="" style="edgeStyle=orthogonalEdgeStyle;rounded=0;orthogonalLoop=1;jettySize=auto;html=1;" edge="1" parent="1" source="TgJVJYoceKgYgHXK6Og4-143" target="TgJVJYoceKgYgHXK6Og4-145">
          <mxGeometry relative="1" as="geometry" />
        </mxCell>
        <mxCell id="TgJVJYoceKgYgHXK6Og4-143" value="F" style="ellipse;whiteSpace=wrap;html=1;aspect=fixed;" vertex="1" parent="1">
          <mxGeometry x="1317.5" y="-230" width="80" height="80" as="geometry" />
        </mxCell>
        <mxCell id="TgJVJYoceKgYgHXK6Og4-144" value="" style="edgeStyle=orthogonalEdgeStyle;rounded=0;orthogonalLoop=1;jettySize=auto;html=1;" edge="1" parent="1" source="TgJVJYoceKgYgHXK6Og4-145" target="TgJVJYoceKgYgHXK6Og4-148">
          <mxGeometry relative="1" as="geometry" />
        </mxCell>
        <mxCell id="TgJVJYoceKgYgHXK6Og4-145" value="F" style="ellipse;whiteSpace=wrap;html=1;aspect=fixed;" vertex="1" parent="1">
          <mxGeometry x="1317.5" y="-70" width="80" height="80" as="geometry" />
        </mxCell>
        <mxCell id="TgJVJYoceKgYgHXK6Og4-146" value="10" style="edgeStyle=orthogonalEdgeStyle;rounded=0;orthogonalLoop=1;jettySize=auto;html=1;" edge="1" parent="1" source="TgJVJYoceKgYgHXK6Og4-148" target="TgJVJYoceKgYgHXK6Og4-145">
          <mxGeometry relative="1" as="geometry" />
        </mxCell>
        <mxCell id="TgJVJYoceKgYgHXK6Og4-147" value="" style="edgeStyle=orthogonalEdgeStyle;rounded=0;orthogonalLoop=1;jettySize=auto;html=1;" edge="1" parent="1" source="TgJVJYoceKgYgHXK6Og4-148" target="TgJVJYoceKgYgHXK6Og4-177">
          <mxGeometry relative="1" as="geometry" />
        </mxCell>
        <mxCell id="TgJVJYoceKgYgHXK6Og4-148" value="F" style="ellipse;whiteSpace=wrap;html=1;aspect=fixed;" vertex="1" parent="1">
          <mxGeometry x="1157.5" y="-70" width="80" height="80" as="geometry" />
        </mxCell>
        <mxCell id="TgJVJYoceKgYgHXK6Og4-149" value="D" style="ellipse;whiteSpace=wrap;html=1;aspect=fixed;" vertex="1" parent="1">
          <mxGeometry x="997.5" y="-70" width="80" height="80" as="geometry" />
        </mxCell>
        <mxCell id="TgJVJYoceKgYgHXK6Og4-150" value="" style="edgeStyle=orthogonalEdgeStyle;rounded=0;orthogonalLoop=1;jettySize=auto;html=1;" edge="1" parent="1" source="TgJVJYoceKgYgHXK6Og4-152" target="TgJVJYoceKgYgHXK6Og4-138">
          <mxGeometry relative="1" as="geometry" />
        </mxCell>
        <mxCell id="TgJVJYoceKgYgHXK6Og4-151" value="" style="edgeStyle=orthogonalEdgeStyle;rounded=0;orthogonalLoop=1;jettySize=auto;html=1;" edge="1" parent="1" source="TgJVJYoceKgYgHXK6Og4-152" target="TgJVJYoceKgYgHXK6Og4-155">
          <mxGeometry relative="1" as="geometry" />
        </mxCell>
        <mxCell id="TgJVJYoceKgYgHXK6Og4-152" value="F" style="ellipse;whiteSpace=wrap;html=1;aspect=fixed;" vertex="1" parent="1">
          <mxGeometry x="837.5" y="-70" width="80" height="80" as="geometry" />
        </mxCell>
        <mxCell id="TgJVJYoceKgYgHXK6Og4-153" value="" style="edgeStyle=orthogonalEdgeStyle;rounded=0;orthogonalLoop=1;jettySize=auto;html=1;" edge="1" parent="1" source="TgJVJYoceKgYgHXK6Og4-155" target="TgJVJYoceKgYgHXK6Og4-158">
          <mxGeometry relative="1" as="geometry" />
        </mxCell>
        <mxCell id="TgJVJYoceKgYgHXK6Og4-154" value="10&lt;br&gt;" style="edgeStyle=orthogonalEdgeStyle;rounded=0;orthogonalLoop=1;jettySize=auto;html=1;entryX=0.5;entryY=1;entryDx=0;entryDy=0;" edge="1" parent="1" source="TgJVJYoceKgYgHXK6Og4-155" target="TgJVJYoceKgYgHXK6Og4-152">
          <mxGeometry relative="1" as="geometry" />
        </mxCell>
        <mxCell id="TgJVJYoceKgYgHXK6Og4-155" value="F" style="ellipse;whiteSpace=wrap;html=1;aspect=fixed;" vertex="1" parent="1">
          <mxGeometry x="837.5" y="90" width="80" height="80" as="geometry" />
        </mxCell>
        <mxCell id="TgJVJYoceKgYgHXK6Og4-156" value="" style="edgeStyle=orthogonalEdgeStyle;rounded=0;orthogonalLoop=1;jettySize=auto;html=1;exitX=1;exitY=0.5;exitDx=0;exitDy=0;" edge="1" parent="1" source="TgJVJYoceKgYgHXK6Og4-158" target="TgJVJYoceKgYgHXK6Og4-162">
          <mxGeometry relative="1" as="geometry">
            <mxPoint x="907.5" y="290" as="sourcePoint" />
          </mxGeometry>
        </mxCell>
        <mxCell id="TgJVJYoceKgYgHXK6Og4-157" value="10" style="edgeStyle=orthogonalEdgeStyle;rounded=0;orthogonalLoop=1;jettySize=auto;html=1;" edge="1" parent="1" source="TgJVJYoceKgYgHXK6Og4-158" target="TgJVJYoceKgYgHXK6Og4-155">
          <mxGeometry relative="1" as="geometry" />
        </mxCell>
        <mxCell id="TgJVJYoceKgYgHXK6Og4-158" value="F" style="ellipse;whiteSpace=wrap;html=1;aspect=fixed;" vertex="1" parent="1">
          <mxGeometry x="837.5" y="250" width="80" height="80" as="geometry" />
        </mxCell>
        <mxCell id="TgJVJYoceKgYgHXK6Og4-159" value="" style="edgeStyle=orthogonalEdgeStyle;rounded=0;orthogonalLoop=1;jettySize=auto;html=1;exitX=1;exitY=0.5;exitDx=0;exitDy=0;" edge="1" parent="1" source="TgJVJYoceKgYgHXK6Og4-162" target="TgJVJYoceKgYgHXK6Og4-165">
          <mxGeometry relative="1" as="geometry" />
        </mxCell>
        <mxCell id="TgJVJYoceKgYgHXK6Og4-160" value="10" style="edgeStyle=orthogonalEdgeStyle;rounded=0;orthogonalLoop=1;jettySize=auto;html=1;entryX=1;entryY=0.5;entryDx=0;entryDy=0;" edge="1" parent="1" source="TgJVJYoceKgYgHXK6Og4-162" target="TgJVJYoceKgYgHXK6Og4-158">
          <mxGeometry relative="1" as="geometry" />
        </mxCell>
        <mxCell id="TgJVJYoceKgYgHXK6Og4-161" value="" style="edgeStyle=orthogonalEdgeStyle;rounded=0;orthogonalLoop=1;jettySize=auto;html=1;" edge="1" parent="1" source="TgJVJYoceKgYgHXK6Og4-162" target="TgJVJYoceKgYgHXK6Og4-181">
          <mxGeometry relative="1" as="geometry" />
        </mxCell>
        <mxCell id="TgJVJYoceKgYgHXK6Og4-162" value="F" style="ellipse;whiteSpace=wrap;html=1;aspect=fixed;" vertex="1" parent="1">
          <mxGeometry x="997.5" y="250" width="80" height="80" as="geometry" />
        </mxCell>
        <mxCell id="TgJVJYoceKgYgHXK6Og4-163" value="10" style="edgeStyle=orthogonalEdgeStyle;rounded=0;orthogonalLoop=1;jettySize=auto;html=1;" edge="1" parent="1" source="TgJVJYoceKgYgHXK6Og4-165" target="TgJVJYoceKgYgHXK6Og4-162">
          <mxGeometry relative="1" as="geometry" />
        </mxCell>
        <mxCell id="TgJVJYoceKgYgHXK6Og4-164" value="" style="edgeStyle=orthogonalEdgeStyle;rounded=0;orthogonalLoop=1;jettySize=auto;html=1;" edge="1" parent="1" source="TgJVJYoceKgYgHXK6Og4-165" target="TgJVJYoceKgYgHXK6Og4-177">
          <mxGeometry relative="1" as="geometry" />
        </mxCell>
        <mxCell id="TgJVJYoceKgYgHXK6Og4-165" value="F" style="ellipse;whiteSpace=wrap;html=1;aspect=fixed;" vertex="1" parent="1">
          <mxGeometry x="1157.5" y="250" width="80" height="80" as="geometry" />
        </mxCell>
        <mxCell id="TgJVJYoceKgYgHXK6Og4-166" value="G" style="ellipse;whiteSpace=wrap;html=1;aspect=fixed;" vertex="1" parent="1">
          <mxGeometry x="1317.5" y="250" width="80" height="80" as="geometry" />
        </mxCell>
        <mxCell id="TgJVJYoceKgYgHXK6Og4-167" value="D" style="ellipse;whiteSpace=wrap;html=1;aspect=fixed;" vertex="1" parent="1">
          <mxGeometry x="1317.5" y="90" width="80" height="80" as="geometry" />
        </mxCell>
        <mxCell id="TgJVJYoceKgYgHXK6Og4-168" value="" style="endArrow=classic;startArrow=classic;html=1;rounded=0;exitX=1;exitY=0.5;exitDx=0;exitDy=0;" edge="1" parent="1" source="TgJVJYoceKgYgHXK6Og4-138">
          <mxGeometry width="50" height="50" relative="1" as="geometry">
            <mxPoint x="947.5" y="-140" as="sourcePoint" />
            <mxPoint x="997.5" y="-190" as="targetPoint" />
          </mxGeometry>
        </mxCell>
        <mxCell id="TgJVJYoceKgYgHXK6Og4-169" value="10" style="endArrow=classic;startArrow=classic;html=1;rounded=0;exitX=1;exitY=0.5;exitDx=0;exitDy=0;" edge="1" parent="1">
          <mxGeometry width="50" height="50" relative="1" as="geometry">
            <mxPoint x="1077.5" y="-188" as="sourcePoint" />
            <mxPoint x="1157.5" y="-188" as="targetPoint" />
          </mxGeometry>
        </mxCell>
        <mxCell id="TgJVJYoceKgYgHXK6Og4-170" value="10" style="endArrow=classic;startArrow=classic;html=1;rounded=0;exitX=1;exitY=0.5;exitDx=0;exitDy=0;" edge="1" parent="1">
          <mxGeometry width="50" height="50" relative="1" as="geometry">
            <mxPoint x="1237.5" y="-190.67000000000002" as="sourcePoint" />
            <mxPoint x="1317.5" y="-190.67000000000002" as="targetPoint" />
          </mxGeometry>
        </mxCell>
        <mxCell id="TgJVJYoceKgYgHXK6Og4-171" value="10" style="edgeStyle=orthogonalEdgeStyle;rounded=0;orthogonalLoop=1;jettySize=auto;html=1;" edge="1" parent="1">
          <mxGeometry relative="1" as="geometry">
            <mxPoint x="1357.5" y="-71" as="sourcePoint" />
            <mxPoint x="1357.5" y="-151" as="targetPoint" />
          </mxGeometry>
        </mxCell>
        <mxCell id="TgJVJYoceKgYgHXK6Og4-172" value="10" style="edgeStyle=orthogonalEdgeStyle;rounded=0;orthogonalLoop=1;jettySize=auto;html=1;" edge="1" parent="1">
          <mxGeometry relative="1" as="geometry">
            <mxPoint x="1197.5" y="-71" as="sourcePoint" />
            <mxPoint x="1197.5" y="-151" as="targetPoint" />
          </mxGeometry>
        </mxCell>
        <mxCell id="TgJVJYoceKgYgHXK6Og4-173" value="" style="edgeStyle=orthogonalEdgeStyle;rounded=0;orthogonalLoop=1;jettySize=auto;html=1;" edge="1" parent="1" source="TgJVJYoceKgYgHXK6Og4-177" target="TgJVJYoceKgYgHXK6Og4-181">
          <mxGeometry relative="1" as="geometry" />
        </mxCell>
        <mxCell id="TgJVJYoceKgYgHXK6Og4-174" value="10" style="edgeStyle=orthogonalEdgeStyle;rounded=0;orthogonalLoop=1;jettySize=auto;html=1;" edge="1" parent="1" source="TgJVJYoceKgYgHXK6Og4-177" target="TgJVJYoceKgYgHXK6Og4-165">
          <mxGeometry relative="1" as="geometry" />
        </mxCell>
        <mxCell id="TgJVJYoceKgYgHXK6Og4-175" value="" style="edgeStyle=orthogonalEdgeStyle;rounded=0;orthogonalLoop=1;jettySize=auto;html=1;" edge="1" parent="1" source="TgJVJYoceKgYgHXK6Og4-177" target="TgJVJYoceKgYgHXK6Og4-148">
          <mxGeometry relative="1" as="geometry" />
        </mxCell>
        <mxCell id="TgJVJYoceKgYgHXK6Og4-176" value="10" style="edgeLabel;html=1;align=center;verticalAlign=middle;resizable=0;points=[];" vertex="1" connectable="0" parent="TgJVJYoceKgYgHXK6Og4-175">
          <mxGeometry x="-0.0419" y="1" relative="1" as="geometry">
            <mxPoint as="offset" />
          </mxGeometry>
        </mxCell>
        <mxCell id="TgJVJYoceKgYgHXK6Og4-177" value="F" style="ellipse;whiteSpace=wrap;html=1;aspect=fixed;" vertex="1" parent="1">
          <mxGeometry x="1157.5" y="90" width="80" height="80" as="geometry" />
        </mxCell>
        <mxCell id="TgJVJYoceKgYgHXK6Og4-178" value="" style="edgeStyle=orthogonalEdgeStyle;rounded=0;orthogonalLoop=1;jettySize=auto;html=1;" edge="1" parent="1" source="TgJVJYoceKgYgHXK6Og4-181" target="TgJVJYoceKgYgHXK6Og4-155">
          <mxGeometry relative="1" as="geometry" />
        </mxCell>
        <mxCell id="TgJVJYoceKgYgHXK6Og4-179" value="10" style="edgeStyle=orthogonalEdgeStyle;rounded=0;orthogonalLoop=1;jettySize=auto;html=1;" edge="1" parent="1" source="TgJVJYoceKgYgHXK6Og4-181" target="TgJVJYoceKgYgHXK6Og4-162">
          <mxGeometry relative="1" as="geometry" />
        </mxCell>
        <mxCell id="TgJVJYoceKgYgHXK6Og4-180" value="10" style="edgeStyle=orthogonalEdgeStyle;rounded=0;orthogonalLoop=1;jettySize=auto;html=1;" edge="1" parent="1" source="TgJVJYoceKgYgHXK6Og4-181" target="TgJVJYoceKgYgHXK6Og4-177">
          <mxGeometry relative="1" as="geometry" />
        </mxCell>
        <mxCell id="TgJVJYoceKgYgHXK6Og4-181" value="F" style="ellipse;whiteSpace=wrap;html=1;aspect=fixed;" vertex="1" parent="1">
          <mxGeometry x="997.5" y="90" width="80" height="80" as="geometry" />
        </mxCell>
        <mxCell id="TgJVJYoceKgYgHXK6Og4-182" value="" style="edgeStyle=orthogonalEdgeStyle;rounded=0;orthogonalLoop=1;jettySize=auto;html=1;" edge="1" parent="1">
          <mxGeometry relative="1" as="geometry">
            <mxPoint x="996.5" y="129.32999999999998" as="sourcePoint" />
            <mxPoint x="916.5" y="129.32999999999998" as="targetPoint" />
          </mxGeometry>
        </mxCell>
        <mxCell id="TgJVJYoceKgYgHXK6Og4-183" value="10" style="edgeStyle=orthogonalEdgeStyle;rounded=0;orthogonalLoop=1;jettySize=auto;html=1;" edge="1" parent="1">
          <mxGeometry relative="1" as="geometry">
            <mxPoint x="916.5" y="129.32999999999998" as="sourcePoint" />
            <mxPoint x="996.5" y="129.32999999999998" as="targetPoint" />
          </mxGeometry>
        </mxCell>
        <mxCell id="TgJVJYoceKgYgHXK6Og4-184" value="1" style="text;html=1;align=center;verticalAlign=middle;resizable=0;points=[];autosize=1;strokeColor=none;fillColor=none;" vertex="1" parent="1">
          <mxGeometry x="912.5" y="-222" width="30" height="30" as="geometry" />
        </mxCell>
        <mxCell id="TgJVJYoceKgYgHXK6Og4-185" value="10" style="text;html=1;align=center;verticalAlign=middle;resizable=0;points=[];autosize=1;strokeColor=none;fillColor=none;" vertex="1" parent="1">
          <mxGeometry x="967.5" y="-222" width="40" height="30" as="geometry" />
        </mxCell>
        <mxCell id="TgJVJYoceKgYgHXK6Og4-186" value="1" style="text;html=1;align=center;verticalAlign=middle;resizable=0;points=[];autosize=1;strokeColor=none;fillColor=none;" vertex="1" parent="1">
          <mxGeometry x="837.5" y="-150" width="30" height="30" as="geometry" />
        </mxCell>
        <mxCell id="TgJVJYoceKgYgHXK6Og4-187" value="10" style="text;html=1;align=center;verticalAlign=middle;resizable=0;points=[];autosize=1;strokeColor=none;fillColor=none;" vertex="1" parent="1">
          <mxGeometry x="832.5" y="-100" width="40" height="30" as="geometry" />
        </mxCell>
        <mxCell id="TgJVJYoceKgYgHXK6Og4-188" value="10&lt;br&gt;" style="text;html=1;align=center;verticalAlign=middle;resizable=0;points=[];autosize=1;strokeColor=none;fillColor=none;" vertex="1" parent="1">
          <mxGeometry x="917.5" y="-70" width="40" height="30" as="geometry" />
        </mxCell>
        <mxCell id="TgJVJYoceKgYgHXK6Og4-189" value="10" style="text;html=1;align=center;verticalAlign=middle;resizable=0;points=[];autosize=1;strokeColor=none;fillColor=none;" vertex="1" parent="1">
          <mxGeometry x="1042.5" y="60" width="40" height="30" as="geometry" />
        </mxCell>
        <mxCell id="TgJVJYoceKgYgHXK6Og4-190" value="10" style="text;html=1;align=center;verticalAlign=middle;resizable=0;points=[];autosize=1;strokeColor=none;fillColor=none;" vertex="1" parent="1">
          <mxGeometry x="1117.5" y="-60" width="40" height="30" as="geometry" />
        </mxCell>
        <mxCell id="TgJVJYoceKgYgHXK6Og4-191" value="10" style="text;html=1;align=center;verticalAlign=middle;resizable=0;points=[];autosize=1;strokeColor=none;fillColor=none;" vertex="1" parent="1">
          <mxGeometry x="1037.5" y="-150" width="40" height="30" as="geometry" />
        </mxCell>
        <mxCell id="TgJVJYoceKgYgHXK6Og4-192" value="" style="edgeStyle=orthogonalEdgeStyle;rounded=0;orthogonalLoop=1;jettySize=auto;html=1;" edge="1" parent="1" source="TgJVJYoceKgYgHXK6Og4-193" target="TgJVJYoceKgYgHXK6Og4-207">
          <mxGeometry relative="1" as="geometry" />
        </mxCell>
        <mxCell id="TgJVJYoceKgYgHXK6Og4-193" value="S" style="ellipse;whiteSpace=wrap;html=1;aspect=fixed;" vertex="1" parent="1">
          <mxGeometry x="1575" y="40" width="80" height="80" as="geometry" />
        </mxCell>
        <mxCell id="TgJVJYoceKgYgHXK6Og4-194" value="F" style="ellipse;whiteSpace=wrap;html=1;aspect=fixed;" vertex="1" parent="1">
          <mxGeometry x="1735" y="40" width="80" height="80" as="geometry" />
        </mxCell>
        <mxCell id="TgJVJYoceKgYgHXK6Og4-195" value="" style="edgeStyle=orthogonalEdgeStyle;rounded=0;orthogonalLoop=1;jettySize=auto;html=1;" edge="1" parent="1" source="TgJVJYoceKgYgHXK6Og4-196" target="TgJVJYoceKgYgHXK6Og4-203">
          <mxGeometry relative="1" as="geometry" />
        </mxCell>
        <mxCell id="TgJVJYoceKgYgHXK6Og4-196" value="F" style="ellipse;whiteSpace=wrap;html=1;aspect=fixed;" vertex="1" parent="1">
          <mxGeometry x="1895" y="40" width="80" height="80" as="geometry" />
        </mxCell>
        <mxCell id="TgJVJYoceKgYgHXK6Og4-197" value="" style="edgeStyle=orthogonalEdgeStyle;rounded=0;orthogonalLoop=1;jettySize=auto;html=1;" edge="1" parent="1" source="TgJVJYoceKgYgHXK6Og4-198" target="TgJVJYoceKgYgHXK6Og4-200">
          <mxGeometry relative="1" as="geometry" />
        </mxCell>
        <mxCell id="TgJVJYoceKgYgHXK6Og4-198" value="F" style="ellipse;whiteSpace=wrap;html=1;aspect=fixed;" vertex="1" parent="1">
          <mxGeometry x="2055" y="40" width="80" height="80" as="geometry" />
        </mxCell>
        <mxCell id="TgJVJYoceKgYgHXK6Og4-199" value="" style="edgeStyle=orthogonalEdgeStyle;rounded=0;orthogonalLoop=1;jettySize=auto;html=1;" edge="1" parent="1" source="TgJVJYoceKgYgHXK6Og4-200" target="TgJVJYoceKgYgHXK6Og4-203">
          <mxGeometry relative="1" as="geometry" />
        </mxCell>
        <mxCell id="TgJVJYoceKgYgHXK6Og4-200" value="F" style="ellipse;whiteSpace=wrap;html=1;aspect=fixed;" vertex="1" parent="1">
          <mxGeometry x="2055" y="200" width="80" height="80" as="geometry" />
        </mxCell>
        <mxCell id="TgJVJYoceKgYgHXK6Og4-201" value="10" style="edgeStyle=orthogonalEdgeStyle;rounded=0;orthogonalLoop=1;jettySize=auto;html=1;" edge="1" parent="1" source="TgJVJYoceKgYgHXK6Og4-203" target="TgJVJYoceKgYgHXK6Og4-200">
          <mxGeometry relative="1" as="geometry" />
        </mxCell>
        <mxCell id="TgJVJYoceKgYgHXK6Og4-202" value="" style="edgeStyle=orthogonalEdgeStyle;rounded=0;orthogonalLoop=1;jettySize=auto;html=1;" edge="1" parent="1" source="TgJVJYoceKgYgHXK6Og4-203" target="TgJVJYoceKgYgHXK6Og4-232">
          <mxGeometry relative="1" as="geometry" />
        </mxCell>
        <mxCell id="TgJVJYoceKgYgHXK6Og4-296" style="edgeStyle=orthogonalEdgeStyle;rounded=0;orthogonalLoop=1;jettySize=auto;html=1;exitX=0;exitY=0.5;exitDx=0;exitDy=0;" edge="1" parent="1" source="TgJVJYoceKgYgHXK6Og4-203" target="TgJVJYoceKgYgHXK6Og4-204">
          <mxGeometry relative="1" as="geometry" />
        </mxCell>
        <mxCell id="TgJVJYoceKgYgHXK6Og4-203" value="F" style="ellipse;whiteSpace=wrap;html=1;aspect=fixed;" vertex="1" parent="1">
          <mxGeometry x="1895" y="200" width="80" height="80" as="geometry" />
        </mxCell>
        <mxCell id="TgJVJYoceKgYgHXK6Og4-204" value="D" style="ellipse;whiteSpace=wrap;html=1;aspect=fixed;" vertex="1" parent="1">
          <mxGeometry x="1735" y="200" width="80" height="80" as="geometry" />
        </mxCell>
        <mxCell id="TgJVJYoceKgYgHXK6Og4-205" value="" style="edgeStyle=orthogonalEdgeStyle;rounded=0;orthogonalLoop=1;jettySize=auto;html=1;" edge="1" parent="1" source="TgJVJYoceKgYgHXK6Og4-207" target="TgJVJYoceKgYgHXK6Og4-193">
          <mxGeometry relative="1" as="geometry" />
        </mxCell>
        <mxCell id="TgJVJYoceKgYgHXK6Og4-206" value="" style="edgeStyle=orthogonalEdgeStyle;rounded=0;orthogonalLoop=1;jettySize=auto;html=1;" edge="1" parent="1" source="TgJVJYoceKgYgHXK6Og4-207" target="TgJVJYoceKgYgHXK6Og4-210">
          <mxGeometry relative="1" as="geometry" />
        </mxCell>
        <mxCell id="TgJVJYoceKgYgHXK6Og4-207" value="F" style="ellipse;whiteSpace=wrap;html=1;aspect=fixed;" vertex="1" parent="1">
          <mxGeometry x="1575" y="200" width="80" height="80" as="geometry" />
        </mxCell>
        <mxCell id="TgJVJYoceKgYgHXK6Og4-208" value="" style="edgeStyle=orthogonalEdgeStyle;rounded=0;orthogonalLoop=1;jettySize=auto;html=1;" edge="1" parent="1" source="TgJVJYoceKgYgHXK6Og4-210" target="TgJVJYoceKgYgHXK6Og4-213">
          <mxGeometry relative="1" as="geometry" />
        </mxCell>
        <mxCell id="TgJVJYoceKgYgHXK6Og4-209" value="10" style="edgeStyle=orthogonalEdgeStyle;rounded=0;orthogonalLoop=1;jettySize=auto;html=1;entryX=0.5;entryY=1;entryDx=0;entryDy=0;" edge="1" parent="1" source="TgJVJYoceKgYgHXK6Og4-210" target="TgJVJYoceKgYgHXK6Og4-207">
          <mxGeometry relative="1" as="geometry" />
        </mxCell>
        <mxCell id="TgJVJYoceKgYgHXK6Og4-210" value="F" style="ellipse;whiteSpace=wrap;html=1;aspect=fixed;" vertex="1" parent="1">
          <mxGeometry x="1575" y="360" width="80" height="80" as="geometry" />
        </mxCell>
        <mxCell id="TgJVJYoceKgYgHXK6Og4-211" value="" style="edgeStyle=orthogonalEdgeStyle;rounded=0;orthogonalLoop=1;jettySize=auto;html=1;exitX=1;exitY=0.5;exitDx=0;exitDy=0;" edge="1" parent="1" source="TgJVJYoceKgYgHXK6Og4-213" target="TgJVJYoceKgYgHXK6Og4-217">
          <mxGeometry relative="1" as="geometry">
            <mxPoint x="1645" y="560" as="sourcePoint" />
          </mxGeometry>
        </mxCell>
        <mxCell id="TgJVJYoceKgYgHXK6Og4-212" value="10" style="edgeStyle=orthogonalEdgeStyle;rounded=0;orthogonalLoop=1;jettySize=auto;html=1;" edge="1" parent="1" source="TgJVJYoceKgYgHXK6Og4-213" target="TgJVJYoceKgYgHXK6Og4-210">
          <mxGeometry relative="1" as="geometry" />
        </mxCell>
        <mxCell id="TgJVJYoceKgYgHXK6Og4-213" value="F" style="ellipse;whiteSpace=wrap;html=1;aspect=fixed;" vertex="1" parent="1">
          <mxGeometry x="1575" y="520" width="80" height="80" as="geometry" />
        </mxCell>
        <mxCell id="TgJVJYoceKgYgHXK6Og4-214" value="" style="edgeStyle=orthogonalEdgeStyle;rounded=0;orthogonalLoop=1;jettySize=auto;html=1;exitX=1;exitY=0.5;exitDx=0;exitDy=0;" edge="1" parent="1" source="TgJVJYoceKgYgHXK6Og4-217" target="TgJVJYoceKgYgHXK6Og4-220">
          <mxGeometry relative="1" as="geometry" />
        </mxCell>
        <mxCell id="TgJVJYoceKgYgHXK6Og4-215" value="10" style="edgeStyle=orthogonalEdgeStyle;rounded=0;orthogonalLoop=1;jettySize=auto;html=1;entryX=1;entryY=0.5;entryDx=0;entryDy=0;" edge="1" parent="1" source="TgJVJYoceKgYgHXK6Og4-217" target="TgJVJYoceKgYgHXK6Og4-213">
          <mxGeometry relative="1" as="geometry" />
        </mxCell>
        <mxCell id="TgJVJYoceKgYgHXK6Og4-216" value="" style="edgeStyle=orthogonalEdgeStyle;rounded=0;orthogonalLoop=1;jettySize=auto;html=1;" edge="1" parent="1" source="TgJVJYoceKgYgHXK6Og4-217" target="TgJVJYoceKgYgHXK6Og4-236">
          <mxGeometry relative="1" as="geometry" />
        </mxCell>
        <mxCell id="TgJVJYoceKgYgHXK6Og4-217" value="F" style="ellipse;whiteSpace=wrap;html=1;aspect=fixed;" vertex="1" parent="1">
          <mxGeometry x="1735" y="520" width="80" height="80" as="geometry" />
        </mxCell>
        <mxCell id="TgJVJYoceKgYgHXK6Og4-218" value="10" style="edgeStyle=orthogonalEdgeStyle;rounded=0;orthogonalLoop=1;jettySize=auto;html=1;" edge="1" parent="1" source="TgJVJYoceKgYgHXK6Og4-220" target="TgJVJYoceKgYgHXK6Og4-217">
          <mxGeometry relative="1" as="geometry" />
        </mxCell>
        <mxCell id="TgJVJYoceKgYgHXK6Og4-219" value="" style="edgeStyle=orthogonalEdgeStyle;rounded=0;orthogonalLoop=1;jettySize=auto;html=1;" edge="1" parent="1" source="TgJVJYoceKgYgHXK6Og4-220" target="TgJVJYoceKgYgHXK6Og4-232">
          <mxGeometry relative="1" as="geometry" />
        </mxCell>
        <mxCell id="TgJVJYoceKgYgHXK6Og4-220" value="F" style="ellipse;whiteSpace=wrap;html=1;aspect=fixed;" vertex="1" parent="1">
          <mxGeometry x="1895" y="520" width="80" height="80" as="geometry" />
        </mxCell>
        <mxCell id="TgJVJYoceKgYgHXK6Og4-222" value="D" style="ellipse;whiteSpace=wrap;html=1;aspect=fixed;" vertex="1" parent="1">
          <mxGeometry x="2055" y="360" width="80" height="80" as="geometry" />
        </mxCell>
        <mxCell id="TgJVJYoceKgYgHXK6Og4-223" value="" style="endArrow=classic;startArrow=classic;html=1;rounded=0;exitX=1;exitY=0.5;exitDx=0;exitDy=0;" edge="1" parent="1" source="TgJVJYoceKgYgHXK6Og4-193">
          <mxGeometry width="50" height="50" relative="1" as="geometry">
            <mxPoint x="1685" y="130" as="sourcePoint" />
            <mxPoint x="1735" y="80" as="targetPoint" />
          </mxGeometry>
        </mxCell>
        <mxCell id="TgJVJYoceKgYgHXK6Og4-224" value="10" style="endArrow=classic;startArrow=classic;html=1;rounded=0;exitX=1;exitY=0.5;exitDx=0;exitDy=0;" edge="1" parent="1">
          <mxGeometry width="50" height="50" relative="1" as="geometry">
            <mxPoint x="1815" y="82" as="sourcePoint" />
            <mxPoint x="1895" y="82" as="targetPoint" />
          </mxGeometry>
        </mxCell>
        <mxCell id="TgJVJYoceKgYgHXK6Og4-225" value="10" style="endArrow=classic;startArrow=classic;html=1;rounded=0;exitX=1;exitY=0.5;exitDx=0;exitDy=0;" edge="1" parent="1">
          <mxGeometry width="50" height="50" relative="1" as="geometry">
            <mxPoint x="1975" y="79.32999999999998" as="sourcePoint" />
            <mxPoint x="2055" y="79.32999999999998" as="targetPoint" />
          </mxGeometry>
        </mxCell>
        <mxCell id="TgJVJYoceKgYgHXK6Og4-226" value="10" style="edgeStyle=orthogonalEdgeStyle;rounded=0;orthogonalLoop=1;jettySize=auto;html=1;" edge="1" parent="1">
          <mxGeometry relative="1" as="geometry">
            <mxPoint x="2095" y="199" as="sourcePoint" />
            <mxPoint x="2095" y="119" as="targetPoint" />
          </mxGeometry>
        </mxCell>
        <mxCell id="TgJVJYoceKgYgHXK6Og4-227" value="10" style="edgeStyle=orthogonalEdgeStyle;rounded=0;orthogonalLoop=1;jettySize=auto;html=1;" edge="1" parent="1">
          <mxGeometry relative="1" as="geometry">
            <mxPoint x="1935" y="199" as="sourcePoint" />
            <mxPoint x="1935" y="119" as="targetPoint" />
          </mxGeometry>
        </mxCell>
        <mxCell id="TgJVJYoceKgYgHXK6Og4-228" value="" style="edgeStyle=orthogonalEdgeStyle;rounded=0;orthogonalLoop=1;jettySize=auto;html=1;" edge="1" parent="1" source="TgJVJYoceKgYgHXK6Og4-232" target="TgJVJYoceKgYgHXK6Og4-236">
          <mxGeometry relative="1" as="geometry" />
        </mxCell>
        <mxCell id="TgJVJYoceKgYgHXK6Og4-229" value="10" style="edgeStyle=orthogonalEdgeStyle;rounded=0;orthogonalLoop=1;jettySize=auto;html=1;" edge="1" parent="1" source="TgJVJYoceKgYgHXK6Og4-232" target="TgJVJYoceKgYgHXK6Og4-220">
          <mxGeometry relative="1" as="geometry" />
        </mxCell>
        <mxCell id="TgJVJYoceKgYgHXK6Og4-230" value="" style="edgeStyle=orthogonalEdgeStyle;rounded=0;orthogonalLoop=1;jettySize=auto;html=1;" edge="1" parent="1" source="TgJVJYoceKgYgHXK6Og4-232" target="TgJVJYoceKgYgHXK6Og4-203">
          <mxGeometry relative="1" as="geometry" />
        </mxCell>
        <mxCell id="TgJVJYoceKgYgHXK6Og4-231" value="10" style="edgeLabel;html=1;align=center;verticalAlign=middle;resizable=0;points=[];" vertex="1" connectable="0" parent="TgJVJYoceKgYgHXK6Og4-230">
          <mxGeometry x="-0.0419" y="1" relative="1" as="geometry">
            <mxPoint as="offset" />
          </mxGeometry>
        </mxCell>
        <mxCell id="TgJVJYoceKgYgHXK6Og4-232" value="F" style="ellipse;whiteSpace=wrap;html=1;aspect=fixed;" vertex="1" parent="1">
          <mxGeometry x="1895" y="360" width="80" height="80" as="geometry" />
        </mxCell>
        <mxCell id="TgJVJYoceKgYgHXK6Og4-233" value="" style="edgeStyle=orthogonalEdgeStyle;rounded=0;orthogonalLoop=1;jettySize=auto;html=1;" edge="1" parent="1" source="TgJVJYoceKgYgHXK6Og4-236" target="TgJVJYoceKgYgHXK6Og4-210">
          <mxGeometry relative="1" as="geometry" />
        </mxCell>
        <mxCell id="TgJVJYoceKgYgHXK6Og4-234" value="10" style="edgeStyle=orthogonalEdgeStyle;rounded=0;orthogonalLoop=1;jettySize=auto;html=1;" edge="1" parent="1" source="TgJVJYoceKgYgHXK6Og4-236" target="TgJVJYoceKgYgHXK6Og4-217">
          <mxGeometry relative="1" as="geometry" />
        </mxCell>
        <mxCell id="TgJVJYoceKgYgHXK6Og4-235" value="10" style="edgeStyle=orthogonalEdgeStyle;rounded=0;orthogonalLoop=1;jettySize=auto;html=1;" edge="1" parent="1" source="TgJVJYoceKgYgHXK6Og4-236" target="TgJVJYoceKgYgHXK6Og4-232">
          <mxGeometry relative="1" as="geometry" />
        </mxCell>
        <mxCell id="TgJVJYoceKgYgHXK6Og4-236" value="F" style="ellipse;whiteSpace=wrap;html=1;aspect=fixed;" vertex="1" parent="1">
          <mxGeometry x="1735" y="360" width="80" height="80" as="geometry" />
        </mxCell>
        <mxCell id="TgJVJYoceKgYgHXK6Og4-237" value="" style="edgeStyle=orthogonalEdgeStyle;rounded=0;orthogonalLoop=1;jettySize=auto;html=1;" edge="1" parent="1">
          <mxGeometry relative="1" as="geometry">
            <mxPoint x="1734" y="399.33" as="sourcePoint" />
            <mxPoint x="1654" y="399.33" as="targetPoint" />
          </mxGeometry>
        </mxCell>
        <mxCell id="TgJVJYoceKgYgHXK6Og4-238" value="10" style="edgeStyle=orthogonalEdgeStyle;rounded=0;orthogonalLoop=1;jettySize=auto;html=1;" edge="1" parent="1">
          <mxGeometry relative="1" as="geometry">
            <mxPoint x="1654" y="399.33" as="sourcePoint" />
            <mxPoint x="1734" y="399.33" as="targetPoint" />
          </mxGeometry>
        </mxCell>
        <mxCell id="TgJVJYoceKgYgHXK6Og4-239" value="1" style="text;html=1;align=center;verticalAlign=middle;resizable=0;points=[];autosize=1;strokeColor=none;fillColor=none;" vertex="1" parent="1">
          <mxGeometry x="1650" y="48" width="30" height="30" as="geometry" />
        </mxCell>
        <mxCell id="TgJVJYoceKgYgHXK6Og4-240" value="10" style="text;html=1;align=center;verticalAlign=middle;resizable=0;points=[];autosize=1;strokeColor=none;fillColor=none;" vertex="1" parent="1">
          <mxGeometry x="1705" y="48" width="40" height="30" as="geometry" />
        </mxCell>
        <mxCell id="TgJVJYoceKgYgHXK6Og4-241" value="1" style="text;html=1;align=center;verticalAlign=middle;resizable=0;points=[];autosize=1;strokeColor=none;fillColor=none;" vertex="1" parent="1">
          <mxGeometry x="1575" y="120" width="30" height="30" as="geometry" />
        </mxCell>
        <mxCell id="TgJVJYoceKgYgHXK6Og4-242" value="10" style="text;html=1;align=center;verticalAlign=middle;resizable=0;points=[];autosize=1;strokeColor=none;fillColor=none;" vertex="1" parent="1">
          <mxGeometry x="1570" y="170" width="40" height="30" as="geometry" />
        </mxCell>
        <mxCell id="TgJVJYoceKgYgHXK6Og4-243" value="10&lt;br&gt;" style="text;html=1;align=center;verticalAlign=middle;resizable=0;points=[];autosize=1;strokeColor=none;fillColor=none;" vertex="1" parent="1">
          <mxGeometry x="1655" y="196" width="40" height="30" as="geometry" />
        </mxCell>
        <mxCell id="TgJVJYoceKgYgHXK6Og4-244" value="10" style="text;html=1;align=center;verticalAlign=middle;resizable=0;points=[];autosize=1;strokeColor=none;fillColor=none;" vertex="1" parent="1">
          <mxGeometry x="1780" y="330" width="40" height="30" as="geometry" />
        </mxCell>
        <mxCell id="TgJVJYoceKgYgHXK6Og4-245" value="10" style="text;html=1;align=center;verticalAlign=middle;resizable=0;points=[];autosize=1;strokeColor=none;fillColor=none;" vertex="1" parent="1">
          <mxGeometry x="1855" y="210" width="40" height="30" as="geometry" />
        </mxCell>
        <mxCell id="TgJVJYoceKgYgHXK6Og4-246" value="10" style="text;html=1;align=center;verticalAlign=middle;resizable=0;points=[];autosize=1;strokeColor=none;fillColor=none;" vertex="1" parent="1">
          <mxGeometry x="1775" y="120" width="40" height="30" as="geometry" />
        </mxCell>
        <mxCell id="TgJVJYoceKgYgHXK6Og4-249" value="" style="endArrow=classic;html=1;rounded=0;entryX=0;entryY=0.5;entryDx=0;entryDy=0;" edge="1" parent="1" target="TgJVJYoceKgYgHXK6Og4-149">
          <mxGeometry width="50" height="50" relative="1" as="geometry">
            <mxPoint x="420" y="240" as="sourcePoint" />
            <mxPoint x="470" y="190" as="targetPoint" />
          </mxGeometry>
        </mxCell>
        <mxCell id="TgJVJYoceKgYgHXK6Og4-252" value="" style="endArrow=classic;startArrow=classic;html=1;rounded=0;" edge="1" parent="1">
          <mxGeometry width="50" height="50" relative="1" as="geometry">
            <mxPoint x="920" y="-30" as="sourcePoint" />
            <mxPoint x="1000" y="-30" as="targetPoint" />
          </mxGeometry>
        </mxCell>
        <mxCell id="TgJVJYoceKgYgHXK6Og4-253" value="" style="endArrow=classic;startArrow=classic;html=1;rounded=0;entryX=0.038;entryY=0.067;entryDx=0;entryDy=0;entryPerimeter=0;" edge="1" parent="1" target="TgJVJYoceKgYgHXK6Og4-191">
          <mxGeometry width="50" height="50" relative="1" as="geometry">
            <mxPoint x="1040" y="-70" as="sourcePoint" />
            <mxPoint x="1090" y="-120" as="targetPoint" />
          </mxGeometry>
        </mxCell>
        <mxCell id="TgJVJYoceKgYgHXK6Og4-254" value="" style="endArrow=classic;startArrow=classic;html=1;rounded=0;entryX=1.004;entryY=0.933;entryDx=0;entryDy=0;entryPerimeter=0;" edge="1" parent="1" target="TgJVJYoceKgYgHXK6Og4-190">
          <mxGeometry width="50" height="50" relative="1" as="geometry">
            <mxPoint x="1080" y="-30" as="sourcePoint" />
            <mxPoint x="1130" y="-80" as="targetPoint" />
          </mxGeometry>
        </mxCell>
        <mxCell id="TgJVJYoceKgYgHXK6Og4-256" value="" style="ellipse;whiteSpace=wrap;html=1;aspect=fixed;" vertex="1" parent="1">
          <mxGeometry x="2045" y="520" width="100" height="100" as="geometry" />
        </mxCell>
        <mxCell id="TgJVJYoceKgYgHXK6Og4-255" value="" style="endArrow=classic;startArrow=classic;html=1;rounded=0;entryX=0.5;entryY=1;entryDx=0;entryDy=0;" edge="1" parent="1" target="TgJVJYoceKgYgHXK6Og4-149">
          <mxGeometry width="50" height="50" relative="1" as="geometry">
            <mxPoint x="1040" y="90" as="sourcePoint" />
            <mxPoint x="1090" y="40" as="targetPoint" />
          </mxGeometry>
        </mxCell>
        <mxCell id="TgJVJYoceKgYgHXK6Og4-221" value="G" style="ellipse;whiteSpace=wrap;html=1;aspect=fixed;" vertex="1" parent="1">
          <mxGeometry x="2055" y="530" width="80" height="80" as="geometry" />
        </mxCell>
        <mxCell id="TgJVJYoceKgYgHXK6Og4-259" value="" style="endArrow=classic;html=1;rounded=0;entryX=0.008;entryY=0.404;entryDx=0;entryDy=0;entryPerimeter=0;" edge="1" parent="1" target="TgJVJYoceKgYgHXK6Og4-256">
          <mxGeometry width="50" height="50" relative="1" as="geometry">
            <mxPoint x="1975" y="560" as="sourcePoint" />
            <mxPoint x="2025" y="510" as="targetPoint" />
          </mxGeometry>
        </mxCell>
        <mxCell id="TgJVJYoceKgYgHXK6Og4-260" value="1" style="edgeLabel;html=1;align=center;verticalAlign=middle;resizable=0;points=[];" vertex="1" connectable="0" parent="TgJVJYoceKgYgHXK6Og4-259">
          <mxGeometry x="0.02" y="1" relative="1" as="geometry">
            <mxPoint as="offset" />
          </mxGeometry>
        </mxCell>
        <mxCell id="TgJVJYoceKgYgHXK6Og4-262" value="" style="endArrow=classic;html=1;rounded=0;entryX=0.5;entryY=0;entryDx=0;entryDy=0;exitX=0.485;exitY=1.056;exitDx=0;exitDy=0;exitPerimeter=0;" edge="1" parent="1" source="TgJVJYoceKgYgHXK6Og4-222" target="TgJVJYoceKgYgHXK6Og4-256">
          <mxGeometry width="50" height="50" relative="1" as="geometry">
            <mxPoint x="2100" y="490" as="sourcePoint" />
            <mxPoint x="2150" y="440" as="targetPoint" />
          </mxGeometry>
        </mxCell>
        <mxCell id="TgJVJYoceKgYgHXK6Og4-263" value="1" style="edgeLabel;html=1;align=center;verticalAlign=middle;resizable=0;points=[];" vertex="1" connectable="0" parent="TgJVJYoceKgYgHXK6Og4-262">
          <mxGeometry x="0.2583" relative="1" as="geometry">
            <mxPoint as="offset" />
          </mxGeometry>
        </mxCell>
        <mxCell id="TgJVJYoceKgYgHXK6Og4-264" value="" style="endArrow=classic;startArrow=classic;html=1;rounded=0;exitX=0.5;exitY=0;exitDx=0;exitDy=0;entryX=0.5;entryY=1;entryDx=0;entryDy=0;" edge="1" parent="1" source="TgJVJYoceKgYgHXK6Og4-222" target="TgJVJYoceKgYgHXK6Og4-200">
          <mxGeometry width="50" height="50" relative="1" as="geometry">
            <mxPoint x="2160" y="340" as="sourcePoint" />
            <mxPoint x="2210" y="290" as="targetPoint" />
          </mxGeometry>
        </mxCell>
        <mxCell id="TgJVJYoceKgYgHXK6Og4-265" value="10" style="text;html=1;align=center;verticalAlign=middle;resizable=0;points=[];autosize=1;strokeColor=none;fillColor=none;" vertex="1" parent="1">
          <mxGeometry x="2105" y="280" width="40" height="30" as="geometry" />
        </mxCell>
        <mxCell id="TgJVJYoceKgYgHXK6Og4-266" value="1" style="text;html=1;align=center;verticalAlign=middle;resizable=0;points=[];autosize=1;strokeColor=none;fillColor=none;" vertex="1" parent="1">
          <mxGeometry x="2115" y="330" width="30" height="30" as="geometry" />
        </mxCell>
        <mxCell id="TgJVJYoceKgYgHXK6Og4-267" value="" style="endArrow=classic;startArrow=classic;html=1;rounded=0;entryX=0;entryY=0.5;entryDx=0;entryDy=0;exitX=1;exitY=0.5;exitDx=0;exitDy=0;" edge="1" parent="1" source="TgJVJYoceKgYgHXK6Og4-232" target="TgJVJYoceKgYgHXK6Og4-222">
          <mxGeometry width="50" height="50" relative="1" as="geometry">
            <mxPoint x="1980" y="400" as="sourcePoint" />
            <mxPoint x="2030" y="350" as="targetPoint" />
          </mxGeometry>
        </mxCell>
        <mxCell id="TgJVJYoceKgYgHXK6Og4-268" value="10" style="text;html=1;align=center;verticalAlign=middle;resizable=0;points=[];autosize=1;strokeColor=none;fillColor=none;" vertex="1" parent="1">
          <mxGeometry x="1975" y="360" width="40" height="30" as="geometry" />
        </mxCell>
        <mxCell id="TgJVJYoceKgYgHXK6Og4-269" value="1" style="text;html=1;align=center;verticalAlign=middle;resizable=0;points=[];autosize=1;strokeColor=none;fillColor=none;" vertex="1" parent="1">
          <mxGeometry x="2025" y="360" width="30" height="30" as="geometry" />
        </mxCell>
        <mxCell id="TgJVJYoceKgYgHXK6Og4-270" value="" style="endArrow=classic;startArrow=classic;html=1;rounded=0;exitX=0.5;exitY=0;exitDx=0;exitDy=0;entryX=0.5;entryY=1;entryDx=0;entryDy=0;" edge="1" parent="1">
          <mxGeometry width="50" height="50" relative="1" as="geometry">
            <mxPoint x="1775" y="200" as="sourcePoint" />
            <mxPoint x="1775" y="120" as="targetPoint" />
          </mxGeometry>
        </mxCell>
        <mxCell id="TgJVJYoceKgYgHXK6Og4-272" value="1" style="text;html=1;align=center;verticalAlign=middle;resizable=0;points=[];autosize=1;strokeColor=none;fillColor=none;" vertex="1" parent="1">
          <mxGeometry x="1785" y="170" width="30" height="30" as="geometry" />
        </mxCell>
        <mxCell id="TgJVJYoceKgYgHXK6Og4-273" value="" style="endArrow=classic;startArrow=classic;html=1;rounded=0;exitX=0.5;exitY=0;exitDx=0;exitDy=0;entryX=0.5;entryY=1;entryDx=0;entryDy=0;" edge="1" parent="1">
          <mxGeometry width="50" height="50" relative="1" as="geometry">
            <mxPoint x="1780" y="360" as="sourcePoint" />
            <mxPoint x="1780" y="280" as="targetPoint" />
          </mxGeometry>
        </mxCell>
        <mxCell id="TgJVJYoceKgYgHXK6Og4-274" value="1&lt;br&gt;" style="text;html=1;align=center;verticalAlign=middle;resizable=0;points=[];autosize=1;strokeColor=none;fillColor=none;" vertex="1" parent="1">
          <mxGeometry x="1795" y="280" width="30" height="30" as="geometry" />
        </mxCell>
        <mxCell id="TgJVJYoceKgYgHXK6Og4-276" value="" style="endArrow=classic;startArrow=classic;html=1;rounded=0;entryX=0;entryY=0.5;entryDx=0;entryDy=0;exitX=1;exitY=0.5;exitDx=0;exitDy=0;" edge="1" parent="1">
          <mxGeometry width="50" height="50" relative="1" as="geometry">
            <mxPoint x="1655" y="234.78" as="sourcePoint" />
            <mxPoint x="1735" y="234.78" as="targetPoint" />
          </mxGeometry>
        </mxCell>
        <mxCell id="TgJVJYoceKgYgHXK6Og4-278" value="1" style="text;html=1;align=center;verticalAlign=middle;resizable=0;points=[];autosize=1;strokeColor=none;fillColor=none;" vertex="1" parent="1">
          <mxGeometry x="1705" y="194.78" width="30" height="30" as="geometry" />
        </mxCell>
        <mxCell id="TgJVJYoceKgYgHXK6Og4-279" value="1" style="text;html=1;align=center;verticalAlign=middle;resizable=0;points=[];autosize=1;strokeColor=none;fillColor=none;" vertex="1" parent="1">
          <mxGeometry x="967.5" y="-70" width="30" height="30" as="geometry" />
        </mxCell>
        <mxCell id="TgJVJYoceKgYgHXK6Og4-280" value="" style="endArrow=classic;html=1;rounded=0;exitX=1;exitY=0.5;exitDx=0;exitDy=0;" edge="1" parent="1" source="TgJVJYoceKgYgHXK6Og4-177" target="TgJVJYoceKgYgHXK6Og4-222">
          <mxGeometry width="50" height="50" relative="1" as="geometry">
            <mxPoint x="1240" y="140" as="sourcePoint" />
            <mxPoint x="1290" y="90" as="targetPoint" />
          </mxGeometry>
        </mxCell>
        <mxCell id="TgJVJYoceKgYgHXK6Og4-281" value="" style="endArrow=classic;html=1;rounded=0;entryX=-0.014;entryY=0.341;entryDx=0;entryDy=0;entryPerimeter=0;exitX=0.5;exitY=1;exitDx=0;exitDy=0;" edge="1" parent="1" source="TgJVJYoceKgYgHXK6Og4-145" target="TgJVJYoceKgYgHXK6Og4-222">
          <mxGeometry width="50" height="50" relative="1" as="geometry">
            <mxPoint x="1360" y="40" as="sourcePoint" />
            <mxPoint x="1410" y="-10" as="targetPoint" />
          </mxGeometry>
        </mxCell>
        <mxCell id="TgJVJYoceKgYgHXK6Og4-283" value="10" style="text;html=1;align=center;verticalAlign=middle;resizable=0;points=[];autosize=1;strokeColor=none;fillColor=none;" vertex="1" parent="1">
          <mxGeometry x="1230" y="98" width="40" height="30" as="geometry" />
        </mxCell>
        <mxCell id="TgJVJYoceKgYgHXK6Og4-284" value="10" style="text;html=1;align=center;verticalAlign=middle;resizable=0;points=[];autosize=1;strokeColor=none;fillColor=none;" vertex="1" parent="1">
          <mxGeometry x="1380" width="40" height="30" as="geometry" />
        </mxCell>
        <mxCell id="TgJVJYoceKgYgHXK6Og4-285" value="" style="endArrow=classic;html=1;rounded=0;exitX=0.577;exitY=1.014;exitDx=0;exitDy=0;exitPerimeter=0;" edge="1" parent="1" source="TgJVJYoceKgYgHXK6Og4-8" target="TgJVJYoceKgYgHXK6Og4-112">
          <mxGeometry width="50" height="50" relative="1" as="geometry">
            <mxPoint x="630" y="330" as="sourcePoint" />
            <mxPoint x="680" y="280" as="targetPoint" />
          </mxGeometry>
        </mxCell>
        <mxCell id="TgJVJYoceKgYgHXK6Og4-286" value="" style="endArrow=classic;html=1;rounded=0;entryX=0;entryY=0;entryDx=0;entryDy=0;exitX=1;exitY=0.5;exitDx=0;exitDy=0;" edge="1" parent="1" source="TgJVJYoceKgYgHXK6Og4-50" target="TgJVJYoceKgYgHXK6Og4-112">
          <mxGeometry width="50" height="50" relative="1" as="geometry">
            <mxPoint x="510" y="400" as="sourcePoint" />
            <mxPoint x="560" y="350" as="targetPoint" />
          </mxGeometry>
        </mxCell>
        <mxCell id="TgJVJYoceKgYgHXK6Og4-287" value="10" style="text;html=1;align=center;verticalAlign=middle;resizable=0;points=[];autosize=1;strokeColor=none;fillColor=none;" vertex="1" parent="1">
          <mxGeometry x="640" y="270" width="40" height="30" as="geometry" />
        </mxCell>
        <mxCell id="TgJVJYoceKgYgHXK6Og4-288" value="10" style="text;html=1;align=center;verticalAlign=middle;resizable=0;points=[];autosize=1;strokeColor=none;fillColor=none;" vertex="1" parent="1">
          <mxGeometry x="500" y="370" width="40" height="30" as="geometry" />
        </mxCell>
        <mxCell id="TgJVJYoceKgYgHXK6Og4-289" value="1" style="text;html=1;align=center;verticalAlign=middle;resizable=0;points=[];autosize=1;strokeColor=none;fillColor=none;" vertex="1" parent="1">
          <mxGeometry x="1305" y="828" width="30" height="30" as="geometry" />
        </mxCell>
        <mxCell id="TgJVJYoceKgYgHXK6Og4-292" value="10" style="text;html=1;align=center;verticalAlign=middle;resizable=0;points=[];autosize=1;strokeColor=none;fillColor=none;" vertex="1" parent="1">
          <mxGeometry x="1357.5" y="780" width="40" height="30" as="geometry" />
        </mxCell>
        <mxCell id="TgJVJYoceKgYgHXK6Og4-295" value="10" style="text;html=1;align=center;verticalAlign=middle;resizable=0;points=[];autosize=1;strokeColor=none;fillColor=none;" vertex="1" parent="1">
          <mxGeometry x="1230" y="910" width="40" height="30" as="geometry" />
        </mxCell>
        <mxCell id="TgJVJYoceKgYgHXK6Og4-297" style="edgeStyle=orthogonalEdgeStyle;rounded=0;orthogonalLoop=1;jettySize=auto;html=1;exitX=1;exitY=0.5;exitDx=0;exitDy=0;entryX=0.952;entryY=1.038;entryDx=0;entryDy=0;entryPerimeter=0;" edge="1" parent="1" source="TgJVJYoceKgYgHXK6Og4-204" target="TgJVJYoceKgYgHXK6Og4-245">
          <mxGeometry relative="1" as="geometry" />
        </mxCell>
        <mxCell id="TgJVJYoceKgYgHXK6Og4-298" value="" style="endArrow=classic;html=1;rounded=0;entryX=0;entryY=0.5;entryDx=0;entryDy=0;" edge="1" parent="1" target="TgJVJYoceKgYgHXK6Og4-204">
          <mxGeometry width="50" height="50" relative="1" as="geometry">
            <mxPoint x="920" y="740" as="sourcePoint" />
            <mxPoint x="970" y="690" as="targetPoint" />
          </mxGeometry>
        </mxCell>
        <mxCell id="TgJVJYoceKgYgHXK6Og4-299" value="" style="endArrow=classic;html=1;rounded=0;entryX=0;entryY=0.5;entryDx=0;entryDy=0;" edge="1" parent="1" target="TgJVJYoceKgYgHXK6Og4-204">
          <mxGeometry width="50" height="50" relative="1" as="geometry">
            <mxPoint x="1040" y="620" as="sourcePoint" />
            <mxPoint x="1090" y="570" as="targetPoint" />
          </mxGeometry>
        </mxCell>
        <mxCell id="TgJVJYoceKgYgHXK6Og4-300" value="" style="endArrow=classic;html=1;rounded=0;exitX=0.5;exitY=0;exitDx=0;exitDy=0;" edge="1" parent="1" source="TgJVJYoceKgYgHXK6Og4-126">
          <mxGeometry width="50" height="50" relative="1" as="geometry">
            <mxPoint x="1490" y="570" as="sourcePoint" />
            <mxPoint x="1730" y="240" as="targetPoint" />
          </mxGeometry>
        </mxCell>
        <mxCell id="TgJVJYoceKgYgHXK6Og4-301" value="" style="endArrow=classic;html=1;rounded=0;exitX=-0.026;exitY=0.447;exitDx=0;exitDy=0;exitPerimeter=0;" edge="1" parent="1" source="TgJVJYoceKgYgHXK6Og4-93">
          <mxGeometry width="50" height="50" relative="1" as="geometry">
            <mxPoint x="1490" y="570" as="sourcePoint" />
            <mxPoint x="1730" y="240" as="targetPoint" />
          </mxGeometry>
        </mxCell>
        <mxCell id="TgJVJYoceKgYgHXK6Og4-304" value="1" style="edgeStyle=orthogonalEdgeStyle;rounded=0;orthogonalLoop=1;jettySize=auto;html=1;" edge="1" parent="1" source="TgJVJYoceKgYgHXK6Og4-302" target="TgJVJYoceKgYgHXK6Og4-303">
          <mxGeometry relative="1" as="geometry" />
        </mxCell>
        <mxCell id="TgJVJYoceKgYgHXK6Og4-307" value="2" style="edgeStyle=orthogonalEdgeStyle;rounded=0;orthogonalLoop=1;jettySize=auto;html=1;entryX=0;entryY=0.5;entryDx=0;entryDy=0;" edge="1" parent="1" source="TgJVJYoceKgYgHXK6Og4-302" target="TgJVJYoceKgYgHXK6Og4-306">
          <mxGeometry relative="1" as="geometry" />
        </mxCell>
        <mxCell id="TgJVJYoceKgYgHXK6Og4-302" value="S" style="ellipse;whiteSpace=wrap;html=1;aspect=fixed;" vertex="1" parent="1">
          <mxGeometry x="110" y="-990" width="80" height="80" as="geometry" />
        </mxCell>
        <mxCell id="TgJVJYoceKgYgHXK6Og4-309" value="4" style="edgeStyle=orthogonalEdgeStyle;rounded=0;orthogonalLoop=1;jettySize=auto;html=1;exitX=1;exitY=0.5;exitDx=0;exitDy=0;entryX=0.5;entryY=0;entryDx=0;entryDy=0;" edge="1" parent="1" source="TgJVJYoceKgYgHXK6Og4-303" target="TgJVJYoceKgYgHXK6Og4-308">
          <mxGeometry relative="1" as="geometry" />
        </mxCell>
        <mxCell id="TgJVJYoceKgYgHXK6Og4-303" value="1" style="ellipse;whiteSpace=wrap;html=1;aspect=fixed;" vertex="1" parent="1">
          <mxGeometry x="280" y="-1060" width="80" height="80" as="geometry" />
        </mxCell>
        <mxCell id="TgJVJYoceKgYgHXK6Og4-310" value="1" style="edgeStyle=orthogonalEdgeStyle;rounded=0;orthogonalLoop=1;jettySize=auto;html=1;exitX=1;exitY=0.5;exitDx=0;exitDy=0;entryX=0.5;entryY=1;entryDx=0;entryDy=0;" edge="1" parent="1" source="TgJVJYoceKgYgHXK6Og4-306" target="TgJVJYoceKgYgHXK6Og4-308">
          <mxGeometry relative="1" as="geometry" />
        </mxCell>
        <mxCell id="TgJVJYoceKgYgHXK6Og4-306" value="2" style="ellipse;whiteSpace=wrap;html=1;aspect=fixed;" vertex="1" parent="1">
          <mxGeometry x="280" y="-910" width="80" height="80" as="geometry" />
        </mxCell>
        <mxCell id="TgJVJYoceKgYgHXK6Og4-308" value="G" style="ellipse;whiteSpace=wrap;html=1;aspect=fixed;" vertex="1" parent="1">
          <mxGeometry x="425" y="-990" width="80" height="80" as="geometry" />
        </mxCell>
      </root>
    </mxGraphModel>
  </diagram>
</mxfile>
